<?xml version="1.0" encoding="UTF-8" standalone="no"?>
<!-- Created with Inkscape (http://www.inkscape.org/) -->

<svg
   xmlns:ns0="http://www.iki.fi/pav/software/textext/"
   xmlns:dc="http://purl.org/dc/elements/1.1/"
   xmlns:cc="http://creativecommons.org/ns#"
   xmlns:rdf="http://www.w3.org/1999/02/22-rdf-syntax-ns#"
   xmlns:svg="http://www.w3.org/2000/svg"
   xmlns="http://www.w3.org/2000/svg"
   xmlns:sodipodi="http://sodipodi.sourceforge.net/DTD/sodipodi-0.dtd"
   xmlns:inkscape="http://www.inkscape.org/namespaces/inkscape"
   width="971.18683"
   height="345.40292"
   id="svg2"
   sodipodi:version="0.32"
   inkscape:version="0.91 r13725"
   sodipodi:docname="PID_en.svg"
   inkscape:output_extension="org.inkscape.output.svg.inkscape"
   version="1.0">
  <defs
     id="defs4">
    <linearGradient
       id="linearGradient3262">
      <stop
         style="stop-color:#ffffff;stop-opacity:1;"
         offset="0"
         id="stop3264" />
      <stop
         style="stop-color:#ffffff;stop-opacity:0;"
         offset="1"
         id="stop3266" />
    </linearGradient>
    <marker
       inkscape:stockid="Arrow2Lend"
       orient="auto"
       refY="0"
       refX="0"
       id="Arrow2Lend"
       style="overflow:visible">
      <path
         id="path4339"
         style="font-size:12px;fill-rule:evenodd;stroke-width:0.625;stroke-linejoin:round"
         d="M 8.7185878,4.0337352 -2.2072895,0.01601326 8.7185884,-4.0017078 c -1.7454984,2.3720609 -1.7354408,5.6174519 -6e-7,8.035443 z"
         transform="matrix(-1.1,0,0,-1.1,-1.1,0)"
         inkscape:connector-curvature="0" />
    </marker>
    <inkscape:perspective
       sodipodi:type="inkscape:persp3d"
       inkscape:vp_x="0 : 526.18109 : 1"
       inkscape:vp_y="0 : 1000 : 0"
       inkscape:vp_z="744.09448 : 526.18109 : 1"
       inkscape:persp3d-origin="372.04724 : 350.78739 : 1"
       id="perspective10" />
    <marker
       inkscape:stockid="Arrow2Lend"
       orient="auto"
       refY="0"
       refX="0"
       id="Arrow2Lend-5"
       style="overflow:visible">
      <path
         id="path4339-9"
         style="font-size:12px;fill-rule:evenodd;stroke-width:0.625;stroke-linejoin:round"
         d="M 8.7185878,4.0337352 -2.2072895,0.01601326 8.7185884,-4.0017078 c -1.7454984,2.3720609 -1.7354408,5.6174519 -6e-7,8.035443 z"
         transform="matrix(-1.1,0,0,-1.1,-1.1,0)"
         inkscape:connector-curvature="0" />
    </marker>
    <inkscape:perspective
       sodipodi:type="inkscape:persp3d"
       inkscape:vp_x="0 : 526.18109 : 1"
       inkscape:vp_y="0 : 1000 : 0"
       inkscape:vp_z="744.09448 : 526.18109 : 1"
       inkscape:persp3d-origin="372.04724 : 350.78739 : 1"
       id="perspective10-5" />
  </defs>
  <sodipodi:namedview
     id="base"
     pagecolor="#ffffff"
     bordercolor="#666666"
     borderopacity="1.0"
     inkscape:pageopacity="0.0"
     inkscape:pageshadow="2"
     inkscape:zoom="1.4142136"
     inkscape:cx="837.27029"
     inkscape:cy="150.16033"
     inkscape:document-units="px"
     inkscape:current-layer="layer1"
     showgrid="false"
     inkscape:window-width="2560"
     inkscape:window-height="1377"
     inkscape:window-x="2552"
     inkscape:window-y="-8"
     showguides="true"
     inkscape:guide-bbox="true"
     inkscape:snap-global="false"
     inkscape:window-maximized="1"
     fit-margin-top="0"
     fit-margin-left="0"
     fit-margin-right="0"
     fit-margin-bottom="0">
    <inkscape:grid
       type="xygrid"
       id="grid6125"
       visible="true"
       enabled="true"
       originx="-2.15644"
       originy="-14.065238" />
    <sodipodi:guide
       orientation="0,1"
       position="655.80482,680.13624"
       id="guide6171" />
    <sodipodi:guide
       orientation="1,0"
       position="859.84356,1077.9348"
       id="guide3526" />
  </sodipodi:namedview>
  <metadata
     id="metadata7">
    <rdf:RDF>
      <cc:Work
         rdf:about="">
        <dc:format>image/svg+xml</dc:format>
        <dc:type
           rdf:resource="http://purl.org/dc/dcmitype/StillImage" />
        <dc:title></dc:title>
      </cc:Work>
    </rdf:RDF>
  </metadata>
  <g
     inkscape:groupmode="layer"
     id="layer2"
     inkscape:label="2"
     transform="translate(-143.62496,-433.53459)" />
  <g
     inkscape:label="Capa 1"
     inkscape:groupmode="layer"
     id="layer1"
     transform="translate(-143.62496,-433.53459)">
    <circle
       style="fill:#000000;fill-opacity:1;stroke:#000000;stroke-width:9.51715279;stroke-linecap:round;stroke-linejoin:round;stroke-miterlimit:4;stroke-dasharray:none;stroke-dashoffset:0;stroke-opacity:1"
       id="path2434"
       transform="matrix(0.34961644,0,0,0.34932201,208.14506,481.44478)"
       cx="217.44653"
       cy="268.04639"
       r="100.55331" />
    <circle
       style="fill:#ffdd55;fill-opacity:1;stroke:#000000;stroke-width:9.51715279;stroke-linecap:round;stroke-linejoin:round;stroke-miterlimit:4;stroke-dasharray:none;stroke-dashoffset:0;stroke-opacity:1"
       id="path2432"
       transform="matrix(0.34961644,0,0,0.34932201,206.08882,479.76859)"
       cx="217.44653"
       cy="268.04639"
       r="100.55331" />
    <path
       style="font-style:normal;font-variant:normal;font-weight:normal;font-stretch:normal;font-size:56px;line-height:100%;font-family:Verdana;-inkscape-font-specification:Verdana;text-align:start;writing-mode:lr-tb;text-anchor:start;fill:#000000;fill-opacity:1;stroke:none;stroke-width:1px;stroke-linecap:butt;stroke-linejoin:miter;stroke-opacity:1"
       d="m 285.93409,572.84636 c 0.0388,0.0775 0.0258,0.15501 -0.0388,0.23249 l -12.35185,14.80199 17.08317,0 c 0.0517,0 0.0969,-0.0129 0.13574,-0.0387 0.0387,-0.0258 0.0582,-0.0646 0.0582,-0.11626 l 0.91137,-4.01048 c -4e-5,-0.0258 0.0194,-0.0581 0.0582,-0.0969 0.0388,-0.0387 0.0969,-0.0581 0.17452,-0.0581 l 1.16344,0 c 0.1551,0 0.23266,0.0646 0.23269,0.19374 l 0,6.93602 c -3e-5,0.14206 -0.0776,0.2131 -0.23269,0.21311 l -23.67601,0 c -0.12926,-10e-6 -0.1939,-0.0711 -0.1939,-0.21311 l 0,-0.79436 c 0,-0.0517 0.0129,-0.0904 0.0388,-0.11625 l 12.91418,-15.51884 c 0.0517,-0.0775 0.0517,-0.15498 0,-0.23248 l -12.27429,-16.62318 c 0,-0.0258 -0.006,-0.0452 -0.0194,-0.0581 -0.0129,-0.0129 -0.0194,-0.0323 -0.0194,-0.0581 l 0,-0.83309 c 0,-0.12914 0.0646,-0.19372 0.19391,-0.19374 l 22.16353,0 c 0.1551,2e-5 0.23266,0.0646 0.23268,0.19374 l 0,6.21916 c -2e-5,0.1421 -0.0776,0.21314 -0.23268,0.21312 l -1.08588,0 c -0.0776,2e-5 -0.13576,-0.0129 -0.17451,-0.0388 -0.0388,-0.0258 -0.0582,-0.0645 -0.0582,-0.11624 l -1.18283,-4.49485 c -2e-5,-0.0516 -0.0194,-0.0904 -0.0582,-0.11626 -0.0388,-0.0258 -0.0711,-0.0387 -0.0969,-0.0387 l -14.62056,0 10.95573,14.76324 0,0 z"
       id="text2425"
       inkscape:connector-curvature="0" />
    <text
       xml:space="preserve"
       style="font-style:normal;font-variant:normal;font-weight:normal;font-stretch:normal;font-size:56px;line-height:100%;font-family:Verdana;-inkscape-font-specification:Verdana;text-align:start;writing-mode:lr-tb;text-anchor:start;fill:#000000;fill-opacity:1;stroke:none;stroke-width:1px;stroke-linecap:butt;stroke-linejoin:miter;stroke-opacity:1"
       x="-115.60039"
       y="316.05032"
       id="text3836"
       sodipodi:linespacing="100%"><tspan
         sodipodi:role="line"
         id="tspan3838"
         x="-115.60039"
         y="316.05032"
         style="font-style:normal;font-variant:normal;font-weight:normal;font-stretch:normal;font-size:56px;line-height:100%;font-family:'Courier New';-inkscape-font-specification:'Courier New';text-align:start;writing-mode:lr-tb;text-anchor:start" /></text>
    <path
       inkscape:connector-curvature="0"
       id="path6123"
       d="m 406.6035,463.0368 0,2.05496 c 24.5668,-1e-5 36.84355,0 42.98525,0 3.07085,0 4.60896,0 5.37667,0 0.38386,0 0.57964,0 0.67561,0 0.048,0 0.0724,0 0.0844,0 l 0,-1.04156 0,-1.0134 c 0,0 0.0116,-1e-5 -49.12197,0 z"
       style="fill:#000000;fill-opacity:1;fill-rule:evenodd;stroke:none" />
    <path
       inkscape:connector-curvature="0"
       id="path8181"
       style="font-size:12px;fill-rule:evenodd;stroke-width:0.625;stroke-linejoin:round"
       d="m 433.57728,454.86677 24.90044,9.15652 -24.90044,9.15653 c 3.97805,-5.40601 3.95512,-12.80237 0,-18.31305 z" />
    <path
       inkscape:connector-curvature="0"
       id="path6157"
       d="m 781.00023,572.4845 0,2.0831 72.4322,0 4.04038,0 0.5187,0 0.0546,0 0.0272,0 0,-1.04155 0,-1.04155 -77.07317,0 z"
       style="fill:#000000;fill-opacity:1;fill-rule:evenodd;stroke:none"
       sodipodi:nodetypes="ccccccccccc" />
    <path
       inkscape:connector-curvature="0"
       id="path8175"
       style="font-size:12px;fill-rule:evenodd;stroke-width:0.625;stroke-linejoin:round"
       d="m 850.58146,564.33489 24.14832,9.15653 -24.14832,9.15652 c 3.85789,-5.406 3.83567,-12.80236 0,-18.31305 z" />
    <path
       style="fill:#000000;fill-opacity:1;fill-rule:evenodd;stroke:none;stroke-width:2.29999995;stroke-linecap:butt;stroke-linejoin:miter;stroke-miterlimit:4;stroke-dasharray:none;stroke-opacity:1"
       d="m 318.91584,572.00592 c 0,0 0,1.04155 0,1.04155 l 0,1.04156 c 0,0 0.009,-3e-5 88.6729,0 l 0,-2.08311 c -44.3321,-10e-6 -66.49873,0 -77.58175,0 -5.54151,0 -8.29826,0 -9.68364,0 -0.6927,0 -1.06544,0 -1.23861,0 -0.0866,0 -0.1191,0 -0.14075,0 -0.0108,0 -0.0254,0 -0.0281,0 z"
       id="path7235"
       inkscape:connector-curvature="0" />
    <path
       style="font-style:normal;font-weight:normal;font-size:28px;font-family:'Bitstream Vera Sans';fill:#000000;fill-opacity:1;stroke:none;stroke-width:1px;stroke-linecap:butt;stroke-linejoin:miter;stroke-opacity:1"
       d="m 233.44849,602.52051 0,-6.61991 -6.57606,0 0,-2.76653 6.57606,0 0,-6.57052 2.80182,0 0,6.57052 6.57605,0 0,2.76653 -6.57605,0 0,6.61991 -2.80182,0 z"
       id="text7231"
       inkscape:connector-curvature="0" />
    <path
       inkscape:connector-curvature="0"
       id="path2446"
       d="m 143.62501,571.69629 0,2.05496 c 50.85149,10e-6 76.26968,0 88.98255,0 6.35643,0 9.53019,0 11.1193,0 0.79456,0 1.20887,0 1.40751,0 0.0993,0 0.14407,0 0.1689,0 0.0124,0 0.025,0 0.0281,0 l 0,-1.0134 0,-1.04156 c 0,0 -0.004,2e-5 -101.70641,0 z"
       style="fill:#000000;fill-opacity:1;fill-rule:evenodd;stroke:none" />
    <path
       inkscape:connector-curvature="0"
       id="path8167"
       style="font-size:12px;fill-rule:evenodd;stroke-width:0.625;stroke-linejoin:round"
       d="m 223.17315,563.53324 24.90044,9.15653 -24.90045,9.15652 c 3.97805,-5.406 3.95514,-12.80236 1e-5,-18.31305 z" />
    <path
       style="font-style:normal;font-variant:normal;font-weight:normal;font-stretch:normal;font-size:56px;line-height:100%;font-family:Verdana;-inkscape-font-specification:Verdana;text-align:start;writing-mode:lr-tb;text-anchor:start;fill:#000000;fill-opacity:1;stroke:none;stroke-width:1px;stroke-linecap:butt;stroke-linejoin:miter;stroke-opacity:1"
       d="m 798.38698,557.99375 c 0,-0.3389 0.0299,-0.66783 0.0898,-0.98681 l 1.19716,-7.1021 c 0.01,-0.0598 0.0174,-0.11462 0.0224,-0.16447 0.005,-0.0498 0.007,-0.11961 0.007,-0.20933 -10e-6,-0.40867 -0.20452,-0.66784 -0.61354,-0.77749 -0.40903,-0.10963 -0.91783,-0.16446 -1.52637,-0.16447 l 0.14965,-1.01672 4.19002,-0.32894 0.34418,0 c -0.0399,0.19937 -0.0599,0.29905 -0.0599,0.29904 l -1.60118,9.52428 c -10e-6,0.13956 -0.0299,0.39872 -0.0898,0.7775 -0.0599,0.37878 -0.0898,0.66286 -0.0898,0.85226 -10e-6,0.6479 0.20451,1.07902 0.61354,1.29332 0.40903,0.21431 0.97269,0.32147 1.69098,0.32147 0.73824,0 1.41163,-0.22179 2.0202,-0.66536 0.60853,-0.44357 1.10984,-1.01921 1.50392,-1.72693 0.39404,-0.70772 0.65593,-1.43039 0.78562,-2.16801 l 0.98766,-5.84615 c 0.01,-0.0598 0.0174,-0.11462 0.0224,-0.16447 0.005,-0.0498 0.007,-0.11961 0.007,-0.20933 -2e-5,-0.40867 -0.20454,-0.66784 -0.61355,-0.77749 -0.40904,-0.10963 -0.91783,-0.16446 -1.52637,-0.16447 l 0.14965,-1.01672 4.19003,-0.32894 0.34418,0 c -0.0399,0.19937 -0.0599,0.29905 -0.0599,0.29904 l -1.8107,10.86994 c -0.02,0.0897 -0.0299,0.21432 -0.0299,0.3738 -2e-5,0.40869 0.20199,0.66785 0.60605,0.77749 0.40402,0.10965 0.91531,0.16447 1.53385,0.16447 l -0.17957,1.01673 -4.44443,0.29903 c 0.0399,-0.19936 0.0598,-0.29903 0.0599,-0.29903 l 0.37412,-2.24277 c -0.50881,0.76753 -1.12485,1.38304 -1.84811,1.84654 -0.72328,0.46351 -1.49895,0.69526 -2.32697,0.69526 -1.22708,0 -2.21224,-0.22179 -2.95545,-0.66535 -0.74325,-0.44357 -1.11486,-1.23851 -1.11486,-2.38482 l 0,0 z m 21.02497,10.37655 c -1.45654,-1.33571 -2.5265,-2.97042 -3.20986,-4.90419 -0.68338,-1.93376 -1.02507,-4.00209 -1.02507,-6.20499 0,-1.84404 0.19953,-3.68811 0.59858,-5.53216 0.39905,-1.84405 0.98765,-3.6258 1.7658,-5.34526 0.77814,-1.71944 1.75083,-3.31431 2.91807,-4.78458 1.16721,-1.47024 2.49405,-2.72369 3.98051,-3.76038 0.0399,-0.0398 0.0898,-0.0598 0.14965,-0.0598 l 0.2993,0 c 0.14962,2e-5 0.22445,0.0798 0.22446,0.23923 -10e-6,0.0997 -0.0349,0.16449 -0.10476,0.19437 -1.35677,1.12639 -2.54894,2.45959 -3.57648,3.9996 -1.02757,1.54005 -1.87805,3.20717 -2.55143,5.00138 -0.67341,1.79423 -1.17721,3.62333 -1.51141,5.48731 -0.33421,1.86399 -0.50131,3.69808 -0.50131,5.50225 0,4.18651 1.04251,7.45098 3.12756,9.79342 0.0599,0.0598 0.0898,0.12459 0.0898,0.19437 -1e-5,0.15949 -0.0748,0.23922 -0.22446,0.23924 l -0.29928,0 c -0.0599,-2e-5 -0.10976,-0.0199 -0.14965,-0.0598 l 0,0 z m 7.22781,-10.43635 c 0,-0.40868 0.0199,-0.71768 0.0598,-0.92701 l 1.40666,-8.44777 -2.54395,0 0.11972,-0.73263 c 0.89785,2e-5 1.68848,-0.30401 2.37185,-0.91206 0.68337,-0.60802 1.22708,-1.35561 1.63112,-2.24276 0.40403,-0.88713 0.69583,-1.80915 0.87541,-2.76609 l 0.79312,0 -0.94276,5.63683 4.24989,0 -0.17958,1.01671 -4.23492,0 -1.43657,8.53747 c -0.0399,0.23924 -0.0798,0.61802 -0.11972,1.13635 -10e-6,0.5582 0.1222,1.03417 0.36663,1.42789 0.2444,0.39373 0.63099,0.59059 1.15974,0.59059 0.61851,0 1.17219,-0.31398 1.66104,-0.94196 0.21947,-0.309 0.37161,-0.56318 0.45642,-0.76254 0.0848,-0.19935 0.16709,-0.45852 0.24691,-0.77749 0.0798,-0.31897 0.15961,-0.58312 0.23943,-0.79245 l 0.28433,-1.77926 0.7931,0 -0.29928,1.86897 c -0.0898,0.60805 -0.29929,1.22605 -0.62851,1.85403 -0.32922,0.62798 -0.74823,1.13883 -1.257,1.53256 -0.5088,0.39373 -1.07744,0.59059 -1.70594,0.59059 -1.03754,0 -1.85808,-0.26664 -2.46165,-0.79992 -0.60357,-0.53328 -0.90534,-1.3033 -0.90534,-2.31005 l 0,0 z m 8.66438,10.49616 c -0.13967,-2e-5 -0.20951,-0.0797 -0.20951,-0.23924 0,-0.10964 0.0199,-0.17444 0.0599,-0.19437 1.37672,-1.13634 2.58385,-2.48698 3.62138,-4.05194 1.03752,-1.56494 1.88801,-3.22708 2.55143,-4.98641 0.66341,-1.75933 1.15973,-3.56351 1.48896,-5.41255 0.32921,-1.84903 0.49382,-3.69557 0.49382,-5.53964 0,-1.18616 -0.0998,-2.36735 -0.29928,-3.54357 -0.19954,-1.17619 -0.53375,-2.30006 -1.00261,-3.37163 -0.4689,-1.07152 -1.07745,-2.03093 -1.82566,-2.87822 -0.0399,-0.0797 -0.0599,-0.14451 -0.0599,-0.19437 -10e-6,-0.15947 0.0698,-0.23921 0.2095,-0.23923 l 0.29929,0 c 0.0499,2e-5 0.0948,0.02 0.13468,0.0598 0.97766,0.90711 1.78324,1.95871 2.41675,3.15483 0.63348,1.19617 1.09239,2.46208 1.37672,3.79776 0.28432,1.33571 0.42647,2.72623 0.42648,4.17155 -10e-6,2.46208 -0.35416,4.91914 -1.06246,7.37122 -0.70833,2.4521 -1.75833,4.72477 -3.15001,6.81803 -1.39169,2.09324 -3.0702,3.83263 -5.03552,5.21817 -0.0399,0.0399 -0.0848,0.0598 -0.13469,0.0598 l -0.29927,0 z"
       id="text2468"
       inkscape:connector-curvature="0" />
    <path
       style="fill:#000000;fill-opacity:1;fill-rule:evenodd;stroke:none;stroke-width:2.29999995;stroke-linecap:butt;stroke-linejoin:miter;stroke-miterlimit:4;stroke-dasharray:none;stroke-opacity:1"
       d="m 281.50432,776.88254 0,2.05496 751.12448,0 0,-2.05496 -661.49448,0 -78.42625,0 -9.79624,0 -1.23861,0 -0.14075,0 z"
       id="path2608"
       inkscape:connector-curvature="0"
       sodipodi:nodetypes="cccccccccc" />
    <path
       style="font-style:normal;font-weight:normal;font-size:28px;font-family:'Bitstream Vera Sans';fill:#000000;fill-opacity:1;stroke:none;stroke-width:1px;stroke-linecap:butt;stroke-linejoin:miter;stroke-opacity:1"
       d="m 697.61613,561.76771 0,-6.61991 -6.57605,0 0,-2.76653 6.57605,0 0,-6.57052 2.80182,0 0,6.57052 6.57605,0 0,2.76653 -6.57605,0 0,6.61991 -2.80182,0 z"
       id="text2628"
       inkscape:connector-curvature="0" />
    <path
       style="font-style:normal;font-weight:normal;font-size:28px;font-family:'Bitstream Vera Sans';fill:#000000;fill-opacity:1;stroke:none;stroke-width:1px;stroke-linecap:butt;stroke-linejoin:miter;stroke-opacity:1"
       d="m 724.1918,630.08962 0,-6.61991 -6.57604,0 0,-2.76653 6.57604,0 0,-6.57051 2.80183,0 0,6.57051 6.57605,0 0,2.76653 -6.57605,0 0,6.61991 -2.80183,0 z"
       id="text2632"
       inkscape:connector-curvature="0" />
    <path
       style="font-style:normal;font-variant:normal;font-weight:normal;font-stretch:normal;font-size:56px;line-height:100%;font-family:Verdana;-inkscape-font-specification:Verdana;text-align:start;writing-mode:lr-tb;text-anchor:start;fill:#000000;fill-opacity:1;stroke:none;stroke-width:1px;stroke-linecap:butt;stroke-linejoin:miter;stroke-opacity:1"
       d="m 1026.9421,564.57637 c 0.3434,0.3128 0.7776,0.4692 1.3028,0.46921 0.7574,-10e-6 1.4365,-0.28759 2.0375,-0.86274 0.6008,-0.57516 1.1285,-1.27141 1.583,-2.08873 l 1.4997,-2.63362 -2.6964,-11.44261 c -0.1112,-0.38343 -0.3585,-0.62813 -0.7424,-0.73409 -0.3837,-0.10593 -0.8938,-0.15891 -1.53,-0.15892 l 0.1819,-1.02924 6.332,0 -0.1514,1.02924 c -0.5151,10e-6 -0.9544,0.0505 -1.318,0.15136 -0.3636,0.10091 -0.5453,0.32795 -0.5453,0.6811 0,0.0606 0.01,0.10092 0.03,0.12109 l 2.0146,8.62737 4.4083,-7.77977 c 0.1413,-0.30271 0.212,-0.54992 0.212,-0.74165 0,-0.35316 -0.1186,-0.61803 -0.3559,-0.79463 -0.2373,-0.17656 -0.5328,-0.26486 -0.8862,-0.26487 l 0.1666,-1.02924 4.9839,0 -0.1818,1.02924 c -0.6363,10e-6 -1.2195,0.1539 -1.7497,0.46164 -0.5302,0.30777 -0.9619,0.74418 -1.2951,1.30924 l -7.4986,13.19836 c -1.4239,2.46207 -2.964,3.69311 -4.6202,3.69312 -0.6363,-10e-6 -1.1993,-0.19173 -1.6891,-0.57517 -0.4898,-0.38344 -0.7347,-0.88292 -0.7347,-1.49843 0,-0.43389 0.1363,-0.80724 0.4089,-1.12004 0.2728,-0.31281 0.6211,-0.46921 1.0453,-0.46921 0.303,0 0.5555,0.0908 0.7575,0.27244 0.202,0.18163 0.303,0.4238 0.303,0.72651 0,0.36326 -0.1213,0.68363 -0.3636,0.96112 -0.2424,0.27749 -0.5454,0.44146 -0.9089,0.49192 l 0,0 z m 23.0408,2.60335 c -1.4743,-1.35214 -2.5575,-3.00698 -3.2493,-4.96452 -0.6918,-1.95756 -1.0377,-4.05133 -1.0376,-6.28134 -10e-5,-1.86673 0.202,-3.73347 0.6059,-5.60022 0.404,-1.86673 0.9999,-3.6704 1.7875,-5.41103 0.7878,-1.74058 1.7725,-3.35506 2.9539,-4.84342 1.1816,-1.48834 2.5248,-2.75721 4.0295,-3.80664 0.04,-0.0403 0.091,-0.0605 0.1515,-0.0605 l 0.303,0 c 0.1515,2e-5 0.2272,0.0808 0.2272,0.24216 0,0.10094 -0.035,0.16653 -0.106,0.19677 -1.3735,1.14024 -2.5803,2.48985 -3.6205,4.04881 -1.0402,1.559 -1.9011,3.24663 -2.5829,5.0629 -0.6816,1.8163 -1.1915,3.6679 -1.5299,5.55482 -0.3383,1.88692 -0.5074,3.74358 -0.5074,5.56995 0,4.238 1.0553,7.54263 3.166,9.9139 0.061,0.0605 0.091,0.12613 0.091,0.19676 0,0.16144 -0.076,0.24217 -0.2271,0.24217 l -0.3031,0 c -0.061,0 -0.111,-0.0202 -0.1515,-0.0605 l 0,0 z m 7.3168,-10.56475 c 0,-0.4137 0.02,-0.72651 0.06,-0.93841 l 1.4241,-8.55169 -2.5753,0 0.1212,-0.74165 c 0.9089,10e-6 1.7092,-0.30775 2.4011,-0.92328 0.6917,-0.61551 1.2421,-1.37229 1.6511,-2.27037 0.409,-0.89802 0.7045,-1.8314 0.8861,-2.8001 l 0.8029,0 -0.9543,5.70616 4.3022,0 -0.1818,1.02924 -4.287,0 -1.4543,8.64251 c -0.04,0.24217 -0.081,0.6256 -0.1211,1.1503 0,0.56507 0.1237,1.04689 0.3711,1.44546 0.2473,0.39859 0.6387,0.59787 1.1739,0.59787 0.6262,0 1.1866,-0.31785 1.6815,-0.95355 0.2223,-0.31281 0.3762,-0.57011 0.4622,-0.77192 0.086,-0.2018 0.169,-0.46416 0.2498,-0.78707 0.081,-0.32289 0.1616,-0.59028 0.2424,-0.80218 l 0.2879,-1.80116 0.8028,0 -0.3029,1.89197 c -0.091,0.61552 -0.303,1.24113 -0.6362,1.87683 -0.3334,0.6357 -0.7575,1.15283 -1.2726,1.55141 -0.515,0.39857 -1.0907,0.59786 -1.7269,0.59786 -1.0503,0 -1.8809,-0.26992 -2.4919,-0.80975 -0.611,-0.53985 -0.9165,-1.31934 -0.9165,-2.33848 l 0,0 z m 8.7709,10.62528 c -0.1413,0 -0.212,-0.0807 -0.212,-0.24217 0,-0.111 0.02,-0.17659 0.06,-0.19676 1.3938,-1.15032 2.6157,-2.51758 3.6659,-4.10178 1.0504,-1.58422 1.9113,-3.2668 2.5829,-5.04777 0.6717,-1.78097 1.174,-3.60734 1.5073,-5.47913 0.3333,-1.87178 0.4999,-3.74104 0.4999,-5.6078 0,-1.20075 -0.101,-2.39647 -0.303,-3.58716 -0.202,-1.19067 -0.5403,-2.32836 -1.0149,-3.41311 -0.4746,-1.08471 -1.0907,-2.05592 -1.8481,-2.91363 -0.04,-0.0807 -0.061,-0.1463 -0.061,-0.19677 0,-0.16141 0.071,-0.24214 0.212,-0.24216 l 0.303,0 c 0.051,2e-5 0.096,0.0202 0.1364,0.0605 0.9897,0.91825 1.8052,1.9828 2.4465,3.19364 0.6412,1.21088 1.1058,2.49236 1.3936,3.84447 0.2878,1.35214 0.4318,2.75977 0.4318,4.22287 0,2.49236 -0.3587,4.97967 -1.0756,7.46192 -0.717,2.48226 -1.78,4.78289 -3.1888,6.90189 -1.4087,2.119 -3.1079,3.87978 -5.0974,5.28238 -0.04,0.0403 -0.086,0.0605 -0.1363,0.0605 l -0.3031,0 z"
       id="text2640"
       inkscape:connector-curvature="0" />
    <path
       inkscape:connector-curvature="0"
       id="path2470"
       d="m 991.96524,572.45635 0,2.0831 c 59.89416,0 89.83566,0 104.80916,0 7.4867,0 11.2412,0 13.1128,0 0.9359,0 1.3974,0 1.6313,0 0.117,0 0.159,0 0.1883,0 0.014,0 0.028,0 0.031,0 l 0,-1.04155 0,-1.04155 c 0,0 0.015,0 -119.77286,0 z"
       style="fill:#000000;fill-opacity:1;fill-rule:evenodd;stroke:none" />
    <path
       inkscape:connector-curvature="0"
       id="path8159"
       style="font-size:12px;fill-rule:evenodd;stroke-width:0.625;stroke-linejoin:round"
       d="m 1087.0627,564.29784 27.7491,9.15653 -27.7491,9.15652 c 4.4331,-5.406 4.4075,-12.80236 0,-18.31305 z" />
    <path
       inkscape:connector-curvature="0"
       style="fill:#000000;fill-opacity:1;stroke:#000000;stroke-width:2.50000024;stroke-linecap:round;stroke-linejoin:round;stroke-miterlimit:4;stroke-dashoffset:0;stroke-opacity:1"
       d="m 464.55635,439.70287 192.71769,0 0,61.82978 -192.71769,0 0,-61.82978 z"
       id="rect2470" />
    <path
       inkscape:connector-curvature="0"
       style="fill:#ccffaa;fill-opacity:1;stroke:#000000;stroke-width:2.50000024;stroke-linecap:round;stroke-linejoin:round;stroke-miterlimit:4;stroke-dashoffset:0;stroke-opacity:1"
       d="m 458.98895,434.78459 192.7177,0 0,61.82978 -192.7177,0 0,-61.82978 z"
       id="rect2468" />
    <path
       style="font-style:normal;font-variant:normal;font-weight:normal;font-stretch:normal;font-size:56px;line-height:100%;font-family:Verdana;-inkscape-font-specification:Verdana;text-align:start;writing-mode:lr-tb;text-anchor:start;fill:#000000;fill-opacity:1;stroke:none;stroke-width:1px;stroke-linecap:butt;stroke-linejoin:miter;stroke-opacity:1"
       d="m 556.76472,474.27826 c -0.18679,0 -0.28019,-0.11923 -0.28019,-0.3577 l 0.12452,-0.49768 c 0.0415,-0.1348 0.12972,-0.20219 0.26462,-0.20219 0.8613,0 1.55657,-0.0648 2.0858,-0.19441 0.52924,-0.1296 0.87168,-0.43287 1.02734,-0.90982 l 4.37397,-17.55888 c 0.0623,-0.1555 0.0934,-0.31103 0.0934,-0.46657 -10e-6,-0.34214 -0.84056,-0.51322 -2.52165,-0.51324 -0.0623,2e-5 -0.11933,-0.0389 -0.17122,-0.11664 -0.0519,-0.0778 -0.0778,-0.1581 -0.0778,-0.24106 l 0.12452,-0.4977 c 0.0208,-0.13476 0.14008,-0.20215 0.35801,-0.20217 l 7.96964,0 c 0.0726,2e-5 0.13229,0.0337 0.17901,0.10108 0.0467,0.0674 0.07,0.14259 0.0701,0.22552 l -0.12454,0.49768 c -0.0311,0.15555 -0.11935,0.23331 -0.26461,0.23329 -0.85095,2e-5 -1.54103,0.0648 -2.07024,0.19441 -0.52925,0.12962 -0.8665,0.4329 -1.01177,0.90983 l -2.61504,10.51354 12.59265,-9.84478 c 0.0519,-0.10367 0.15304,-0.22031 0.30353,-0.34994 0.15045,-0.12958 0.26979,-0.25659 0.35801,-0.38103 0.0882,-0.12441 0.13228,-0.27993 0.13232,-0.46658 -4e-5,-0.38361 -0.30616,-0.57543 -0.91838,-0.57545 -0.0727,2e-5 -0.13493,-0.0389 -0.18679,-0.11664 -0.0519,-0.0778 -0.0779,-0.1581 -0.0778,-0.24106 l 0.12453,-0.4977 c 0.0207,-0.13476 0.14006,-0.20215 0.358,-0.20217 l 5.74375,0 c 0.0726,2e-5 0.13228,0.0337 0.179,0.10108 0.0467,0.0674 0.07,0.14259 0.0701,0.22552 l -0.12453,0.49768 c -0.0311,0.15555 -0.11936,0.23331 -0.26462,0.23329 -1.46319,2e-5 -3.10797,0.71025 -4.93432,2.13071 -2e-5,10e-6 -0.0156,0.005 -0.0467,0.0156 -0.0312,0.0104 -0.0571,0.0259 -0.0778,0.0466 l -6.63099,5.19457 4.71641,11.24452 c 0.28016,0.46658 0.57591,0.75172 0.88725,0.8554 0.31129,0.10368 0.78864,0.15552 1.43204,0.15552 0.083,0 0.15304,0.0389 0.21014,0.11665 0.0571,0.0778 0.0856,0.14775 0.0856,0.20996 l -0.12453,0.51324 c -0.0519,0.14514 -0.18162,0.21772 -0.38914,0.21772 l -6.84891,0 c -0.19718,0 -0.29575,-0.11923 -0.29574,-0.3577 l 0.12452,-0.49768 c 0.0622,-0.1348 0.15046,-0.20219 0.26462,-0.20219 1.21411,0 1.82117,-0.30586 1.82119,-0.9176 -2e-5,-0.0622 -0.003,-0.11405 -0.008,-0.15553 -0.005,-0.0415 -0.013,-0.0829 -0.0234,-0.12442 l -3.95369,-9.40932 -4.82536,3.73263 -1.46318,5.89443 c -0.0415,0.20736 -0.0623,0.36808 -0.0623,0.48213 -10e-6,0.33179 0.83017,0.49768 2.49052,0.49768 0.083,0 0.15046,0.0389 0.20235,0.11665 0.0519,0.0778 0.0778,0.14775 0.0778,0.20996 l -0.12453,0.51324 c -0.0519,0.14514 -0.18161,0.21772 -0.38914,0.21772 l -7.9385,0 z m 24.58601,2.724 c -0.0229,0 -0.0481,-0.016 -0.0755,-0.048 -0.0275,-0.032 -0.0412,-0.0618 -0.0412,-0.0892 l 0.0618,-0.22643 c 0.0137,-0.064 0.0504,-0.0961 0.10988,-0.0961 0.29758,-10e-6 0.50359,-0.0252 0.61805,-0.0755 0.11446,-0.0503 0.20373,-0.18984 0.26782,-0.41856 l 1.58633,-6.32624 c 0,-0.0137 0.0172,-0.10978 0.0515,-0.28818 0.0343,-0.17839 0.0515,-0.31104 0.0515,-0.39797 0,-0.17381 -0.0321,-0.32019 -0.0961,-0.43912 -0.0641,-0.11892 -0.17397,-0.17839 -0.32963,-0.1784 -0.16024,10e-6 -0.30101,0.0675 -0.42233,0.20242 -0.12132,0.13494 -0.21976,0.29276 -0.2953,0.47343 -0.0755,0.18069 -0.14535,0.39111 -0.20944,0.63126 -0.0641,0.24015 -0.10988,0.4174 -0.13735,0.53176 -0.0229,0.0686 -0.0572,0.10293 -0.10301,0.10292 l -0.16481,0 c -0.0687,1e-5 -0.10301,-0.048 -0.10301,-0.1441 0.10988,-0.4437 0.20944,-0.79705 0.29872,-1.06009 0.0893,-0.26302 0.22891,-0.50774 0.4189,-0.73417 0.18999,-0.22642 0.43836,-0.33963 0.74509,-0.33964 0.32047,10e-6 0.59861,0.0938 0.83438,0.28132 0.23577,0.18756 0.37654,0.43913 0.42233,0.75476 0.58142,-0.69071 1.18116,-1.03607 1.79922,-1.03608 0.38913,10e-6 0.7199,0.10521 0.99231,0.31562 0.27239,0.21043 0.47726,0.48145 0.61461,0.81309 0.13733,0.33164 0.20601,0.68958 0.20602,1.07382 -10e-6,0.59008 -0.14995,1.20875 -0.44981,1.85601 -0.29987,0.64727 -0.70733,1.18817 -1.22236,1.62273 -0.51505,0.43456 -1.07244,0.65183 -1.67217,0.65183 -0.27469,0 -0.52191,-0.0812 -0.74166,-0.24358 -0.21975,-0.16238 -0.38685,-0.37624 -0.50131,-0.64154 l -0.64552,2.57304 c -0.0275,0.0869 -0.0412,0.16696 -0.0412,0.24014 0,0.13266 0.30445,0.19898 0.91334,0.19899 0.0321,-1e-5 0.0595,0.016 0.0824,0.048 0.0229,0.032 0.0343,0.0663 0.0343,0.10292 l -0.0618,0.22643 c -0.009,0.0549 -0.0595,0.0823 -0.15108,0.0823 l -2.64388,0 z m 3.78384,-2.92298 c 0.36167,0 0.69244,-0.16353 0.99232,-0.49058 0.29986,-0.32707 0.54937,-0.7319 0.74852,-1.21448 0.19915,-0.48258 0.35022,-0.96632 0.45324,-1.45119 0.10301,-0.48488 0.15451,-0.89427 0.15451,-1.2282 0,-0.3385 -0.0675,-0.63583 -0.20259,-0.89199 -0.13505,-0.25615 -0.35824,-0.38423 -0.66955,-0.38424 -0.33878,10e-6 -0.66269,0.12695 -0.9717,0.38081 -0.30903,0.25388 -0.58487,0.5615 -0.82751,0.92286 -1e-5,0.005 -1e-5,0.0115 0,0.0206 -1e-5,0.009 -0.005,0.0183 -0.0137,0.0274 l -0.76226,3.06019 c 0.0549,0.3385 0.17511,0.63126 0.36053,0.87827 0.18542,0.24701 0.43149,0.37051 0.73823,0.37051 l 0,0 z m 9.66813,0.51004 c -1.49432,0 -2.66433,-0.5573 -3.51007,-1.6719 -0.84573,-1.1146 -1.26859,-2.44435 -1.26859,-3.98924 0,-1.49305 0.36578,-2.90833 1.09737,-4.24586 0.73159,-1.33751 1.73038,-2.41323 2.9964,-3.22717 1.266,-0.8139 2.64097,-1.22085 4.12491,-1.22087 0.9028,2e-5 1.68109,0.23848 2.33486,0.71542 0.65375,0.47696 0.98062,1.14053 0.98063,1.99073 -10e-6,1.73153 -0.85612,2.83317 -2.56834,3.30492 -1.71223,0.47177 -3.77728,0.70766 -6.19514,0.70765 l -0.0623,0 c -0.31131,1.25458 -0.48254,2.34845 -0.51367,3.28159 0,0.95391 0.22052,1.79115 0.66155,2.51175 0.44102,0.7206 1.10257,1.08091 1.98463,1.0809 1.25562,10e-6 2.45937,-0.30068 3.61124,-0.90205 1.15185,-0.60137 2.10654,-1.41528 2.86409,-2.44175 0.0207,-0.0415 0.083,-0.0622 0.18678,-0.0622 0.11414,0 0.21791,0.0518 0.31132,0.15552 0.0934,0.10369 0.14008,0.20219 0.14009,0.2955 -1e-5,0.0622 -0.0104,0.10369 -0.0311,0.12442 -0.53963,0.73616 -1.18301,1.37382 -1.93015,1.91297 -0.74717,0.53916 -1.56695,0.95389 -2.45938,1.24421 -0.89245,0.29031 -1.81082,0.43547 -2.75513,0.43547 l 0,0 z m -1.88344,-8.3984 c 1.24524,10e-6 2.38672,-0.0544 3.42445,-0.1633 1.0377,-0.10886 1.98202,-0.40436 2.83295,-0.8865 0.85092,-0.48212 1.27638,-1.21568 1.27639,-2.20069 -10e-6,-0.37325 -0.10638,-0.71022 -0.3191,-1.01092 -0.21274,-0.30067 -0.49033,-0.53137 -0.83276,-0.69209 -0.34246,-0.16069 -0.71604,-0.24104 -1.12073,-0.24106 -1.33866,2e-5 -2.45161,0.50547 -3.33884,1.51637 -0.88726,1.01093 -1.52805,2.23699 -1.92236,3.67819 l 0,0 z m 18.56987,16.01917 c -1.51507,-1.38938 -2.62802,-3.08979 -3.33885,-5.10125 -0.71083,-2.01147 -1.06625,-4.1629 -1.06625,-6.45432 0,-1.91816 0.20755,-3.8363 0.62264,-5.75446 0.41508,-1.91814 1.02733,-3.77149 1.83674,-5.56006 0.80941,-1.78852 1.82119,-3.44746 3.03532,-4.97682 1.21411,-1.52932 2.59427,-2.83314 4.14048,-3.91148 0.0415,-0.0414 0.0934,-0.0622 0.15565,-0.0622 l 0.31132,0 c 0.15564,3e-5 0.23347,0.083 0.23348,0.24885 -10e-6,0.1037 -0.0363,0.17109 -0.10896,0.20217 -1.4113,1.17166 -2.65137,2.55843 -3.7202,4.16032 -1.06886,1.60194 -1.95351,3.33605 -2.65396,5.20234 -0.70046,1.86633 -1.2245,3.76892 -1.57213,5.7078 -0.34764,1.9389 -0.52145,3.84668 -0.52145,5.72336 0,4.35472 1.0844,7.75037 3.25323,10.18694 0.0623,0.0622 0.0934,0.1296 0.0934,0.20219 -10e-6,0.16589 -0.0778,0.24883 -0.23349,0.24884 l -0.31132,0 c -0.0623,-1e-5 -0.11416,-0.0207 -0.15565,-0.0622 l 0,0 z m 5.60365,-10.48245 c -10e-6,-0.23846 0.0415,-0.54433 0.12453,-0.9176 l 2.28816,-9.20713 -3.37776,0 c -0.0623,10e-6 -0.11934,-0.0389 -0.17123,-0.11665 -0.0519,-0.0778 -0.0778,-0.1581 -0.0778,-0.24106 l 0.12454,-0.49768 c 0.0415,-0.13478 0.1297,-0.20218 0.26461,-0.20219 l 3.50228,0 1.30752,-5.19456 c 0.083,-0.2903 0.23607,-0.52618 0.45919,-0.70765 0.22309,-0.18142 0.48512,-0.27214 0.78607,-0.27217 0.23866,3e-5 0.4462,0.0752 0.62262,0.22551 0.17641,0.15037 0.26461,0.34996 0.26462,0.59878 -1e-5,0.13481 -0.0104,0.22294 -0.0311,0.2644 l -1.27639,5.08569 3.31549,0 c 0.0726,1e-5 0.1323,0.0337 0.17901,0.10109 0.0467,0.0674 0.07,0.14258 0.0701,0.22551 l -0.12452,0.51324 c -2e-5,0.14517 -0.083,0.21775 -0.24906,0.21774 l -3.44002,0 -2.33485,9.30045 c -0.14528,0.60136 -0.21792,1.10942 -0.21792,1.52416 0,0.93315 0.31649,1.39973 0.9495,1.39972 0.65376,10e-6 1.25303,-0.22033 1.79784,-0.66098 0.54479,-0.44066 1.00917,-0.9824 1.39313,-1.62524 0.38395,-0.64284 0.70564,-1.30123 0.96508,-1.97519 0.0415,-0.0829 0.10376,-0.12442 0.18679,-0.12442 l 0.37357,0 c 0.15565,0 0.23347,0.10369 0.23349,0.31106 -0.48773,1.2753 -1.15706,2.40028 -2.00798,3.37491 -0.85093,0.97462 -1.85232,1.46194 -3.00419,1.46194 -0.81979,0 -1.50728,-0.27217 -2.06244,-0.81651 -0.55518,-0.54434 -0.83278,-1.22606 -0.83277,-2.04517 l 0,0 z m 10.05544,10.54466 c -0.14528,-10e-6 -0.21792,-0.0829 -0.21792,-0.24884 0,-0.11406 0.0208,-0.18146 0.0623,-0.20219 1.43204,-1.182 2.68767,-2.58692 3.7669,-4.21475 1.07921,-1.62784 1.96387,-3.35677 2.65395,-5.18679 0.69007,-1.83002 1.20633,-3.70669 1.54878,-5.63003 0.34244,-1.92333 0.51366,-3.84407 0.51368,-5.76224 -2e-5,-1.23382 -0.10378,-2.46247 -0.31132,-3.68596 -0.20755,-1.22346 -0.55518,-2.39248 -1.0429,-3.50711 -0.48774,-1.11458 -1.12074,-2.11254 -1.89902,-2.99388 -0.0415,-0.0829 -0.0623,-0.15032 -0.0623,-0.20217 0,-0.16588 0.0726,-0.24882 0.21792,-0.24885 l 0.31132,0 c 0.0519,3e-5 0.0986,0.0208 0.14008,0.0622 1.01696,0.94355 1.85491,2.03741 2.51387,3.2816 0.65894,1.24423 1.13628,2.56101 1.43203,3.95035 0.29575,1.38938 0.44362,2.83578 0.44363,4.33917 -10e-6,2.56101 -0.36839,5.11682 -1.10516,7.66743 -0.73679,2.55064 -1.82897,4.91462 -3.27658,7.09199 -1.44762,2.17736 -3.19357,3.98664 -5.23786,5.42785 -0.0415,0.0415 -0.0882,0.0622 -0.14009,0.0622 l -0.31132,0 z"
       id="text3298"
       inkscape:connector-curvature="0" />
    <path
       style="fill:#000000;fill-opacity:1;fill-rule:evenodd;stroke:none;stroke-width:2.29999995;stroke-linecap:butt;stroke-linejoin:miter;stroke-miterlimit:4;stroke-dasharray:none;stroke-opacity:1"
       d="m 406.09678,464.89469 c 10e-6,53.89951 0,80.8562 0,94.33107 0,6.73744 0,10.11054 0,11.7949 0,0.84218 0,1.25327 0,1.46381 0,0.10528 0,0.17073 0,0.19705 l 1.04156,0 1.04155,0 c 0,0 10e-6,0.0122 0,-107.78683 l -2.08311,0 z"
       id="path3323"
       inkscape:connector-curvature="0" />
    <path
       inkscape:connector-curvature="0"
       id="path3325"
       d="m 407.19466,572.00594 0,2.08311 c 24.5668,0 36.84354,0 42.98524,0 3.07085,0 4.60897,0 5.37668,0 0.38386,0 0.57964,0 0.6756,0 0.048,0 0.0724,0 0.0844,0 l 0,-1.04155 0,-1.04156 c 0,0 0.0116,0 -49.12197,0 z"
       style="fill:#000000;fill-opacity:1;fill-rule:evenodd;stroke:none" />
    <path
       inkscape:connector-curvature="0"
       id="path8151"
       style="font-size:12px;fill-rule:evenodd;stroke-width:0.625;stroke-linejoin:round"
       d="m 434.16984,563.85513 24.90044,9.15653 -24.90044,9.15652 c 3.97805,-5.406 3.95512,-12.80236 0,-18.31305 z" />
    <rect
       style="fill:#000000;fill-opacity:1;stroke:#000000;stroke-width:2.5;stroke-linecap:round;stroke-linejoin:round;stroke-miterlimit:4;stroke-dasharray:none;stroke-dashoffset:0;stroke-opacity:1"
       id="rect3329"
       width="191.63405"
       height="61.829777"
       x="465.073"
       y="545.1427" />
    <rect
       style="fill:#afe9dd;fill-opacity:1;stroke:#000000;stroke-width:2.5;stroke-linecap:round;stroke-linejoin:round;stroke-miterlimit:4;stroke-dasharray:none;stroke-dashoffset:0;stroke-opacity:1"
       id="rect3331"
       width="191.63405"
       height="61.829777"
       x="459.53696"
       y="540.22443" />
    <text
       xml:space="preserve"
       style="font-style:normal;font-variant:normal;font-weight:normal;font-stretch:normal;font-size:56px;line-height:125%;font-family:Verdana;-inkscape-font-specification:Verdana;text-align:start;writing-mode:lr-tb;text-anchor:start;fill:#000000;fill-opacity:1;stroke:none;stroke-width:1px;stroke-linecap:butt;stroke-linejoin:miter;stroke-opacity:1"
       x="320"
       y="-89"
       id="text3333"
       sodipodi:linespacing="125%"
       transform="translate(-22.582686,278.33055)"><tspan
         sodipodi:role="line"
         id="tspan3335"
         x="320"
         y="-89" /></text>
    <path
       inkscape:connector-curvature="0"
       id="text3337"
       d="m 538.32186,579.6113 c -0.15087,0 -0.2263,-0.0963 -0.2263,-0.28891 l 0.10057,-0.40198 c 0.0335,-0.10886 0.10477,-0.1633 0.21374,-0.1633 0.69566,0 1.25722,-0.0523 1.68468,-0.15702 0.42746,-0.10468 0.70405,-0.34964 0.82977,-0.73486 l 3.53282,-14.18217 c 0.0503,-0.1256 0.0754,-0.25122 0.0754,-0.37685 -1e-5,-0.27634 -0.67891,-0.41452 -2.03671,-0.41453 -0.0503,1e-5 -0.0964,-0.0314 -0.13829,-0.0942 -0.0419,-0.0628 -0.0629,-0.12769 -0.0629,-0.19471 l 0.10058,-0.40197 c 0.0168,-0.10885 0.11315,-0.16328 0.28917,-0.1633 l 6.43701,0 c 0.0587,2e-5 0.10685,0.0272 0.14458,0.0817 0.0377,0.0544 0.0566,0.11517 0.0566,0.18214 l -0.10058,0.40198 c -0.0252,0.12563 -0.0964,0.18844 -0.21373,0.18843 -0.6873,10e-6 -1.24466,0.0524 -1.67211,0.15702 -0.42747,0.10469 -0.69987,0.34965 -0.8172,0.73485 l -2.11215,8.49172 10.17099,-7.95156 c 0.0419,-0.0837 0.12361,-0.17794 0.24516,-0.28264 0.12151,-0.10467 0.2179,-0.20725 0.28916,-0.30776 0.0712,-0.10048 0.10684,-0.2261 0.10687,-0.37685 -3e-5,-0.30984 -0.24728,-0.46477 -0.74177,-0.46478 -0.0587,10e-6 -0.10897,-0.0314 -0.15087,-0.0942 -0.0419,-0.0628 -0.0629,-0.12769 -0.0629,-0.19471 l 0.10058,-0.40197 c 0.0168,-0.10885 0.11313,-0.16328 0.28916,-0.1633 l 4.63918,0 c 0.0586,2e-5 0.10684,0.0272 0.14458,0.0817 0.0377,0.0544 0.0566,0.11517 0.0566,0.18214 l -0.10058,0.40198 c -0.0252,0.12563 -0.0964,0.18844 -0.21373,0.18843 -1.18181,10e-6 -2.51029,0.57366 -3.98541,1.72095 -3e-5,1e-5 -0.0126,0.004 -0.0377,0.0125 -0.0252,0.008 -0.0461,0.0209 -0.0629,0.0377 l -5.3558,4.19561 3.80941,9.08211 c 0.22628,0.37686 0.46516,0.60715 0.71662,0.6909 0.25143,0.0837 0.63698,0.12562 1.15665,0.12562 0.067,0 0.12361,0.0314 0.16973,0.0942 0.0461,0.0628 0.0691,0.11934 0.0692,0.16958 l -0.10058,0.41454 c -0.0419,0.11724 -0.1467,0.17586 -0.31431,0.17586 l -5.53181,0 c -0.15926,0 -0.23889,-0.0963 -0.23887,-0.28892 l 0.10057,-0.40197 c 0.0503,-0.10887 0.12153,-0.1633 0.21374,-0.1633 0.98062,0 1.47094,-0.24705 1.47095,-0.74114 -10e-6,-0.0502 -0.002,-0.0921 -0.006,-0.12562 -0.004,-0.0335 -0.0105,-0.067 -0.0189,-0.10049 l -3.19336,-7.59984 -3.89742,3.01481 -1.18179,4.76089 c -0.0335,0.16749 -0.0503,0.29729 -0.0503,0.38941 0,0.26799 0.67052,0.40198 2.01157,0.40198 0.067,0 0.12152,0.0314 0.16344,0.0942 0.0419,0.0628 0.0629,0.11934 0.0629,0.16958 l -0.10058,0.41454 c -0.0419,0.11724 -0.14668,0.17586 -0.3143,0.17586 l -6.41187,0 z m 20.99499,-0.80357 c 0,-0.16257 0.0259,-0.30665 0.0776,-0.43227 l 0.92074,-2.45508 c 0.0924,-0.24753 0.1442,-0.47845 0.1553,-0.69274 0,-0.23276 -0.0906,-0.34914 -0.27178,-0.34914 -0.29582,0 -0.53617,0.14871 -0.72106,0.44612 -0.18489,0.29742 -0.33095,0.64379 -0.43818,1.03912 -0.0185,0.0554 -0.0444,0.0831 -0.0777,0.0831 l -0.13312,0 c -0.0554,1e-5 -0.0832,-0.0388 -0.0832,-0.11638 0.11463,-0.44704 0.29489,-0.84606 0.54079,-1.19705 0.2459,-0.35099 0.55743,-0.52648 0.93461,-0.52649 0.26253,1e-5 0.48162,0.0878 0.65727,0.26324 0.17564,0.1755 0.26346,0.39441 0.26346,0.65672 0,0.15887 -0.0259,0.30297 -0.0776,0.43228 l -0.92074,2.44952 c -0.10723,0.28819 -0.16085,0.5191 -0.16085,0.69275 0,0.23276 0.0924,0.34914 0.27733,0.34914 0.20707,0 0.38734,-0.0804 0.54079,-0.24107 0.15346,-0.16072 0.27918,-0.35099 0.37718,-0.57082 0.098,-0.21983 0.17656,-0.44428 0.23572,-0.67335 0.0259,-0.0517 0.0536,-0.0776 0.0832,-0.0776 l 0.13312,0 c 0.0555,10e-6 0.0832,0.037 0.0832,0.11085 -0.0629,0.2697 -0.159,0.53479 -0.28842,0.79526 -0.12942,0.26047 -0.29675,0.4803 -0.50197,0.65949 -0.20523,0.17919 -0.43911,0.26879 -0.70164,0.26879 -0.25885,0 -0.47424,-0.0878 -0.64618,-0.26325 -0.17195,-0.17549 -0.25792,-0.39255 -0.25792,-0.65117 l 0,0 z m 1.29236,-6.07396 c 0,-0.15517 0.0601,-0.29094 0.18026,-0.40733 0.12018,-0.11637 0.25792,-0.17456 0.41322,-0.17457 0.11463,10e-6 0.20892,0.0351 0.28288,0.10529 0.0739,0.0702 0.11093,0.16442 0.11093,0.28264 0,0.15149 -0.061,0.28635 -0.18304,0.40457 -0.12202,0.11823 -0.25699,0.17734 -0.4049,0.17734 -0.10723,0 -0.2006,-0.036 -0.2801,-0.10807 -0.0795,-0.072 -0.11925,-0.16533 -0.11925,-0.27987 l 0,0 z"
       style="font-style:normal;font-variant:normal;font-weight:normal;font-stretch:normal;font-size:56px;line-height:100%;font-family:Verdana;-inkscape-font-specification:Verdana;text-align:start;writing-mode:lr-tb;text-anchor:start;fill:#000000;fill-opacity:1;stroke:none" />
    <path
       inkscape:connector-curvature="0"
       style="font-style:normal;font-weight:normal;font-size:28px;font-family:'Bitstream Vera Sans';fill:#000000;fill-opacity:1;stroke:none"
       d="m 570.39647,581.387 -2.24058,0 0,-23.65696 c -10e-6,-1.90717 0.46099,-3.34409 1.38298,-4.31076 0.92198,-0.96664 1.96501,-1.44997 3.12909,-1.44999 0.69018,2e-5 1.21813,0.14154 1.58385,0.42455 0.3657,0.28305 0.54855,0.61615 0.54857,0.99931 -2e-5,0.34837 -0.13137,0.63575 -0.39404,0.86215 -0.2627,0.22645 -0.58462,0.33966 -0.96577,0.33964 -0.30906,2e-5 -0.60265,-0.0653 -0.88078,-0.19594 -0.18544,-0.0871 -0.3992,-0.28955 -0.64127,-0.60743 -0.24209,-0.31784 -0.48161,-0.47678 -0.71853,-0.4768 -0.17514,2e-5 -0.33482,0.0523 -0.47902,0.15676 -0.10308,0.0697 -0.17514,0.18725 -0.21634,0.3527 -0.0721,0.2874 -0.10816,0.89265 -0.10816,1.81574 l 0,25.74703 z"
       id="text3727" />
    <path
       inkscape:connector-curvature="0"
       style="font-style:normal;font-weight:normal;font-size:28px;font-family:'Bitstream Vera Sans';fill:#000000;fill-opacity:1;stroke:none"
       d="m 568.16358,559.32153 2.24059,0 0,23.65695 c -10e-6,1.90719 -0.46101,3.34411 -1.38299,4.31077 -0.92199,0.96665 -1.96502,1.44998 -3.12908,1.44998 -0.69021,0 -1.21817,-0.14152 -1.58387,-0.42454 -0.3657,-0.28304 -0.54855,-0.61614 -0.54855,-0.99931 0,-0.34835 0.13134,-0.63574 0.39403,-0.86216 0.26269,-0.22643 0.57945,-0.33964 0.95032,-0.33963 0.31934,-1e-5 0.62323,0.0697 0.91168,0.209 0.18542,0.0871 0.39661,0.28738 0.63355,0.6009 0.23693,0.3135 0.47385,0.47026 0.71081,0.47026 0.17511,0 0.33478,-0.0522 0.47901,-0.15675 0.10296,-0.061 0.17511,-0.18289 0.21633,-0.36576 0.0721,-0.27868 0.10817,-0.87958 0.10817,-1.80269 l 0,-25.74702 z"
       id="text3731" />
    <path
       inkscape:connector-curvature="0"
       id="text3469"
       d="m 580.57069,577.59256 c -1.20694,0 -2.15196,-0.45012 -2.83505,-1.35038 -0.6831,-0.90025 -1.02464,-1.97428 -1.02464,-3.22208 0,-1.20592 0.29545,-2.34903 0.88635,-3.42934 0.59089,-1.0803 1.39761,-1.94915 2.42017,-2.60656 1.02253,-0.65738 2.13309,-0.98608 3.33165,-0.98609 0.72919,10e-6 1.3578,0.19262 1.88584,0.57784 0.52803,0.38523 0.79205,0.9212 0.79206,1.6079 -10e-6,1.39854 -0.69148,2.28833 -2.07443,2.66936 -1.38296,0.38104 -3.05088,0.57156 -5.00377,0.57156 l -0.0503,0 c -0.25145,1.01331 -0.38974,1.89682 -0.41489,2.65052 0,0.77045 0.17811,1.44669 0.53433,2.02872 0.35621,0.58202 0.89053,0.87303 1.60297,0.87303 1.01416,0 1.98641,-0.24286 2.91677,-0.72858 0.93034,-0.48572 1.70144,-1.14311 2.3133,-1.97219 0.0168,-0.0335 0.067,-0.0502 0.15087,-0.0502 0.0922,10e-6 0.176,0.0419 0.25144,0.12562 0.0754,0.0838 0.11314,0.1633 0.11315,0.23867 -10e-6,0.0502 -0.008,0.0838 -0.0252,0.10049 -0.43585,0.59459 -0.9555,1.10962 -1.55896,1.54509 -0.60348,0.43548 -1.26562,0.77046 -1.98643,1.00494 -0.72081,0.23449 -1.46257,0.35173 -2.22529,0.35173 l 0,0 z m -1.52124,-6.78332 c 1.00577,10e-6 1.92775,-0.044 2.7659,-0.13189 0.83815,-0.0879 1.60087,-0.3266 2.28816,-0.71602 0.68728,-0.38941 1.03092,-0.9819 1.03093,-1.77748 -1e-5,-0.30148 -0.0859,-0.57365 -0.25774,-0.81652 -0.17182,-0.24284 -0.39603,-0.42917 -0.67261,-0.55899 -0.2766,-0.1298 -0.57833,-0.19469 -0.90521,-0.19471 -1.08122,2e-5 -1.98014,0.40827 -2.69676,1.22477 -0.71662,0.81652 -1.23418,1.8068 -1.55267,2.97084 l 0,0 z m 14.99874,12.93856 c -1.2237,-1.12218 -2.12262,-2.49559 -2.69675,-4.12024 -0.57414,-1.62465 -0.86121,-3.36235 -0.8612,-5.21311 -10e-6,-1.54927 0.16762,-3.09855 0.50289,-4.64783 0.33525,-1.54927 0.82976,-3.0462 1.48353,-4.49081 0.65375,-1.44458 1.47095,-2.7845 2.4516,-4.01975 0.98063,-1.23521 2.09537,-2.2883 3.34423,-3.15926 0.0335,-0.0335 0.0754,-0.0502 0.12572,-0.0502 l 0.25144,0 c 0.12572,2e-5 0.18858,0.067 0.18859,0.20099 -1e-5,0.0838 -0.0294,0.13819 -0.088,0.1633 -1.13991,0.94634 -2.1415,2.06642 -3.00479,3.36026 -0.8633,1.29387 -1.57783,2.6945 -2.14357,4.20189 -0.56576,1.50741 -0.98903,3.04413 -1.2698,4.61015 -0.28079,1.56603 -0.42118,3.10693 -0.42117,4.6227 -10e-6,3.51728 0.87586,6.25992 2.6276,8.22792 0.0503,0.0502 0.0754,0.10468 0.0754,0.1633 -1e-5,0.13399 -0.0629,0.20099 -0.18859,0.20099 l -0.25144,0 c -0.0503,0 -0.0922,-0.0167 -0.12573,-0.0502 l 0,0 z m 6.88962,-6.77076 c 0,-0.0502 0.0168,-0.14236 0.0503,-0.27635 l 2.70304,-8.9565 -2.3133,0 c -0.58671,0 -1.09589,0.15494 -1.52754,0.46478 -0.43164,0.30986 -0.8151,0.68043 -1.15036,1.11171 -0.33526,0.4313 -0.52385,0.65113 -0.56575,0.65949 l -0.31431,0 c -0.11734,10e-6 -0.17601,-0.067 -0.17601,-0.20099 0,-0.0335 0.008,-0.067 0.0252,-0.10049 0.55318,-0.97143 1.14408,-1.78585 1.77269,-2.44325 0.62862,-0.65739 1.34942,-0.98609 2.16244,-0.9861 l 7.73196,0 c 0.19276,1e-5 0.34363,0.0544 0.4526,0.1633 0.10895,0.10888 0.16343,0.25125 0.16344,0.42711 -1e-5,0.22611 -0.0901,0.43339 -0.2703,0.6218 -0.18022,0.18844 -0.38347,0.28264 -0.60976,0.28264 l -4.60146,0 -1.7727,9.03186 c -0.0503,0.23449 -0.17182,0.43548 -0.36459,0.60297 -0.19278,0.16749 -0.41489,0.25123 -0.66633,0.25123 -0.20116,0 -0.37298,-0.0649 -0.51546,-0.19471 -0.1425,-0.1298 -0.21374,-0.28264 -0.21373,-0.4585 l 0,0 z m 7.61881,6.82101 c -0.11734,-10e-6 -0.17601,-0.067 -0.17601,-0.20099 0,-0.0921 0.0168,-0.14656 0.0503,-0.1633 1.15665,-0.9547 2.17081,-2.08943 3.04249,-3.40423 0.87168,-1.31479 1.5862,-2.71123 2.14358,-4.18932 0.55736,-1.47809 0.97435,-2.99387 1.25094,-4.54734 0.27659,-1.55346 0.41488,-3.10483 0.41489,-4.65411 -1e-5,-0.99656 -0.0838,-1.98893 -0.25145,-2.97713 -0.16764,-0.98817 -0.44842,-1.93239 -0.84234,-2.83266 -0.39394,-0.90024 -0.90521,-1.70629 -1.53382,-2.41813 -0.0335,-0.067 -0.0503,-0.12141 -0.0503,-0.1633 0,-0.13398 0.0587,-0.20097 0.17601,-0.20099 l 0.25145,0 c 0.0419,2e-5 0.0796,0.0167 0.11315,0.0502 0.82139,0.76209 1.49819,1.6456 2.03043,2.65051 0.53222,1.00496 0.91777,2.06851 1.15665,3.19068 0.23886,1.12219 0.3583,2.29043 0.35831,3.50472 -1e-5,2.0685 -0.29755,4.1328 -0.89264,6.19292 -0.59509,2.06012 -1.47725,3.9695 -2.64646,5.72814 -1.16923,1.75863 -2.57942,3.21997 -4.23058,4.38403 -0.0335,0.0335 -0.0712,0.0502 -0.11315,0.0502 l -0.25145,0 z m 13.56551,-6.20549 c -0.71243,0 -1.318,-0.19261 -1.8167,-0.57784 -0.4987,-0.38522 -0.87378,-0.8835 -1.12522,-1.49484 -0.25144,-0.61133 -0.37717,-1.26454 -0.37716,-1.95963 -10e-6,-0.80393 0.15924,-1.64976 0.47774,-2.53746 0.3185,-0.88768 0.75643,-1.71047 1.3138,-2.46837 0.55737,-0.75789 1.21323,-1.37341 1.96757,-1.84658 0.75433,-0.47314 1.54219,-0.70972 2.36359,-0.70973 0.4945,10e-6 0.94292,0.14866 1.34523,0.44594 0.40231,0.2973 0.70824,0.68881 0.91778,1.17452 l 1.47096,-5.8412 c 0.0838,-0.37683 0.12572,-0.60713 0.12573,-0.69089 -10e-6,-0.30984 -0.549,-0.46477 -1.64697,-0.46478 -0.0503,10e-6 -0.0964,-0.0314 -0.1383,-0.0942 -0.0419,-0.0628 -0.0629,-0.1277 -0.0629,-0.19471 l 0.10057,-0.40197 c 0.0335,-0.10885 0.10477,-0.16329 0.21374,-0.16331 l 3.36937,-0.27635 c 0.16762,10e-6 0.25143,0.0838 0.25145,0.25123 l -3.70883,14.84794 c -10e-6,0.10887 -0.0294,0.31823 -0.088,0.62808 -0.0587,0.30986 -0.088,0.51922 -0.088,0.62809 -10e-6,0.7537 0.25981,1.13055 0.77948,1.13055 0.37716,0 0.69566,-0.1947 0.95549,-0.58412 0.25982,-0.38941 0.45259,-0.78929 0.57833,-1.19964 0.12571,-0.41035 0.264,-0.93794 0.41489,-1.58277 0.0419,-0.11724 0.10475,-0.17586 0.18858,-0.17587 l 0.30174,0 c 0.0503,10e-6 0.0922,0.0251 0.12572,0.0754 0.0335,0.0502 0.0503,0.10887 0.0503,0.17587 -0.2766,1.16405 -0.5951,2.10617 -0.95549,2.82638 -0.36042,0.7202 -0.93455,1.0803 -1.72241,1.0803 -0.57833,0 -1.08332,-0.17167 -1.51496,-0.51503 -0.43165,-0.34335 -0.68939,-0.80394 -0.77319,-1.38179 -0.45261,0.54435 -0.96389,0.99657 -1.53382,1.35667 -0.56995,0.36011 -1.15666,0.54015 -1.76012,0.54015 l 0,0 z m 0.0503,-0.61552 c 0.41907,0 0.83605,-0.11934 1.25094,-0.35801 0.41488,-0.23867 0.79414,-0.54224 1.13779,-0.91072 0.34364,-0.36847 0.63699,-0.74114 0.88006,-1.11799 0.0168,0 0.0252,-0.0251 0.0252,-0.0754 l 1.42066,-5.61509 c -0.10897,-0.62807 -0.32898,-1.16613 -0.66004,-1.61418 -0.33108,-0.44802 -0.78159,-0.67203 -1.35153,-0.67205 -0.8633,2e-5 -1.62183,0.48154 -2.27558,1.4446 -0.65376,0.96307 -1.15875,2.08944 -1.51496,3.3791 -0.35622,1.28967 -0.53433,2.35741 -0.53432,3.20323 -10e-6,0.5946 0.13201,1.13265 0.39602,1.61418 0.26402,0.48154 0.67262,0.7223 1.2258,0.7223 l 0,0 z m 12.61001,0 c -10e-6,-0.0502 0.0168,-0.14236 0.0503,-0.27635 l 2.70304,-8.9565 -2.3133,0 c -0.58671,0 -1.09589,0.15494 -1.52753,0.46478 -0.43165,0.30986 -0.81511,0.68043 -1.15037,1.11171 -0.33526,0.4313 -0.52384,0.65113 -0.56575,0.65949 l -0.31431,0 c -0.11734,10e-6 -0.17601,-0.067 -0.17601,-0.20099 0,-0.0335 0.008,-0.067 0.0252,-0.10049 0.55318,-0.97143 1.14408,-1.78585 1.7727,-2.44325 0.62861,-0.65739 1.34942,-0.98609 2.16243,-0.9861 l 7.73196,0 c 0.19276,1e-5 0.34363,0.0544 0.4526,0.1633 0.10895,0.10888 0.16343,0.25125 0.16344,0.42711 -10e-6,0.22611 -0.0901,0.43339 -0.2703,0.6218 -0.18022,0.18844 -0.38347,0.28264 -0.60976,0.28264 l -4.60146,0 -1.77269,9.03186 c -0.0503,0.23449 -0.17183,0.43548 -0.36459,0.60297 -0.19279,0.16749 -0.4149,0.25123 -0.66634,0.25123 -0.20116,0 -0.37298,-0.0649 -0.51546,-0.19471 -0.14249,-0.1298 -0.21373,-0.28264 -0.21373,-0.4585 l 0,0 z"
       style="font-style:normal;font-variant:normal;font-weight:normal;font-stretch:normal;font-size:56px;line-height:100%;font-family:Verdana;-inkscape-font-specification:Verdana;text-align:start;writing-mode:lr-tb;text-anchor:start;fill:#000000;fill-opacity:1;stroke:none" />
    <path
       style="fill:#000000;fill-opacity:1;fill-rule:evenodd;stroke:none;stroke-width:2.29999995;stroke-linecap:butt;stroke-linejoin:miter;stroke-miterlimit:4;stroke-dasharray:none;stroke-opacity:1"
       d="m 406.06863,573.38527 c -10e-6,53.89953 0,80.85619 0,94.33108 0,6.73744 0,10.11054 0,11.7949 0,0.84218 0,1.25326 0,1.46381 0,0.10528 0,0.14258 0,0.1689 0,0.0132 0,0.0249 0,0.0281 l 1.04156,0 1.04155,0 c 0,0 -1e-5,0.0122 0,-107.78684 l -2.08311,0 z"
       id="path3482"
       inkscape:connector-curvature="0" />
    <path
       inkscape:connector-curvature="0"
       id="path3484"
       d="m 406.35015,679.56758 0,2.05496 c 24.5668,1e-5 36.84355,0 42.98525,0 3.07085,0 4.60896,0 5.37667,0 0.38386,0 0.57964,0 0.6756,0 0.048,0 0.0724,0 0.0844,0 l 0,-1.0134 0,-1.04156 c 0,0 0.0116,10e-6 -49.12197,0 z"
       style="fill:#000000;fill-opacity:1;fill-rule:evenodd;stroke:none" />
    <path
       inkscape:connector-curvature="0"
       id="path8143"
       style="font-size:12px;fill-rule:evenodd;stroke-width:0.625;stroke-linejoin:round"
       d="m 433.32377,671.40645 24.90044,9.15653 -24.90044,9.15652 c 3.97805,-5.406 3.95512,-12.80236 0,-18.31305 z" />
    <rect
       style="fill:#000000;fill-opacity:1;stroke:#000000;stroke-width:2.5;stroke-linecap:round;stroke-linejoin:round;stroke-miterlimit:4;stroke-dasharray:none;stroke-dashoffset:0;stroke-opacity:1"
       id="rect3494"
       width="192.88271"
       height="61.829777"
       x="463.71112"
       y="651.93958" />
    <rect
       style="fill:#ff7f2a;fill-opacity:1;stroke:#000000;stroke-width:2.5;stroke-linecap:round;stroke-linejoin:round;stroke-miterlimit:4;stroke-dasharray:none;stroke-dashoffset:0;stroke-opacity:1"
       id="rect3496"
       width="192.88271"
       height="61.829777"
       x="458.13901"
       y="647.02124" />
    <path
       style="font-style:normal;font-variant:normal;font-weight:normal;font-stretch:normal;font-size:56px;line-height:125%;font-family:Verdana;-inkscape-font-specification:Verdana;text-align:start;writing-mode:lr-tb;text-anchor:start;fill:#000000;fill-opacity:1;stroke:none;stroke-width:1px;stroke-linecap:butt;stroke-linejoin:miter;stroke-opacity:1"
       d="m 493.70468,457.37941 c -3e-5,1.26801 -0.22115,2.44315 -0.66338,3.52541 -0.44227,1.08229 -1.06077,2.02047 -1.85552,2.81456 -0.98707,0.98623 -2.15358,1.72589 -3.49954,2.21899 -1.34599,0.49311 -3.04448,0.73966 -5.09547,0.73966 l -3.80719,0 0,10.66267 -3.80719,0 0,-28.6067 7.7682,0 c 1.7177,3e-5 3.17265,0.14412 4.36482,0.43226 1.19212,0.28821 2.24967,0.73969 3.17265,1.35446 1.08957,0.73008 1.93241,1.63944 2.52851,2.7281 0.59604,1.0887 0.89408,2.46556 0.89411,4.13059 l 0,0 z m -3.96102,0.0961 c -2e-5,-0.9862 -0.17307,-1.84434 -0.51916,-2.57442 -0.34613,-0.73003 -0.8717,-1.3256 -1.57671,-1.78671 -0.61532,-0.39702 -1.31715,-0.682 -2.1055,-0.85494 -0.78836,-0.17288 -1.78502,-0.25934 -2.98998,-0.25935 l -3.76873,0 0,11.43114 3.21111,0 c 1.53824,2e-5 2.78808,-0.13767 3.7495,-0.41305 0.96139,-0.27537 1.74335,-0.71404 2.34585,-1.31603 0.60247,-0.61477 1.02869,-1.26158 1.27867,-1.94041 0.24996,-0.67881 0.37493,-1.44088 0.37495,-2.28623 l 0,0 z"
       id="text3520"
       inkscape:connector-curvature="0" />
    <path
       style="font-style:normal;font-variant:normal;font-weight:normal;font-stretch:normal;font-size:56px;line-height:125%;font-family:Verdana;-inkscape-font-specification:Verdana;text-align:start;writing-mode:lr-tb;text-anchor:start;fill:#000000;fill-opacity:1;stroke:none;stroke-width:1px;stroke-linecap:butt;stroke-linejoin:miter;stroke-opacity:1"
       d="m 488.0351,584.3887 -11.30619,0 0,-2.92023 3.74951,0 0,-22.76625 -3.74951,0 0,-2.92022 11.30619,0 0,2.92022 -3.7495,0 0,22.76625 3.7495,0 0,2.92023 z"
       id="text3543"
       inkscape:connector-curvature="0" />
    <path
       inkscape:connector-curvature="0"
       id="text3510"
       d="m 552.58279,689.6568 c -0.19867,0 -0.29802,-0.12683 -0.29801,-0.38048 l 0.13245,-0.52937 c 0.0441,-0.14337 0.13797,-0.21505 0.28146,-0.21505 0.91613,0 1.65566,-0.0689 2.21858,-0.20679 0.56292,-0.13785 0.92717,-0.46043 1.09274,-0.96774 l 4.6524,-18.67665 c 0.0662,-0.1654 0.0993,-0.33083 0.0993,-0.49627 -10e-6,-0.36392 -0.89406,-0.54589 -2.68217,-0.54591 -0.0662,2e-5 -0.12694,-0.0413 -0.18212,-0.12407 -0.0552,-0.0827 -0.0828,-0.16816 -0.0828,-0.25641 l 0.13245,-0.52937 c 0.022,-0.14334 0.149,-0.21503 0.38081,-0.21505 l 8.47697,0 c 0.0772,2e-5 0.14071,0.0359 0.1904,0.10752 0.0496,0.0717 0.0745,0.15167 0.0745,0.23988 l -0.13245,0.52936 c -0.0331,0.16545 -0.12695,0.24816 -0.28146,0.24814 -0.90511,2e-5 -1.63912,0.0689 -2.20203,0.20678 -0.56294,0.13788 -0.92166,0.46046 -1.07618,0.96775 l -2.7815,11.18283 13.39427,-10.4715 c 0.0552,-0.11027 0.16279,-0.23433 0.32286,-0.37221 0.16002,-0.13783 0.28696,-0.27293 0.3808,-0.40529 0.0938,-0.13233 0.14071,-0.29775 0.14073,-0.49629 -2e-5,-0.40802 -0.32563,-0.61205 -0.97684,-0.61207 -0.0773,2e-5 -0.14351,-0.0413 -0.19867,-0.12407 -0.0552,-0.0827 -0.0828,-0.16816 -0.0828,-0.25641 l 0.13245,-0.52937 c 0.022,-0.14334 0.14899,-0.21503 0.38081,-0.21505 l 6.10938,0 c 0.0772,2e-5 0.1407,0.0359 0.1904,0.10752 0.0497,0.0717 0.0745,0.15167 0.0745,0.23988 l -0.13245,0.52936 c -0.0331,0.16545 -0.12696,0.24816 -0.28146,0.24814 -1.55635,2e-5 -3.30583,0.75547 -5.24844,2.26634 -2e-5,2e-5 -0.0166,0.005 -0.0497,0.0165 -0.0331,0.0111 -0.0607,0.0276 -0.0828,0.0496 l -7.05311,5.52524 5.01665,11.96033 c 0.29799,0.49628 0.61257,0.79956 0.94372,0.90985 0.33111,0.11029 0.83884,0.16542 1.5232,0.16542 0.0883,0 0.16279,0.0414 0.22352,0.12407 0.0607,0.0827 0.091,0.15716 0.0911,0.22333 l -0.13245,0.54591 c -0.0552,0.15439 -0.19318,0.2316 -0.41392,0.2316 l -7.2849,0 c -0.20973,0 -0.31459,-0.12683 -0.31457,-0.38049 l 0.13245,-0.52936 c 0.0662,-0.14337 0.16003,-0.21506 0.28146,-0.21506 1.2914,0 1.9371,-0.32533 1.93712,-0.97601 -2e-5,-0.0662 -0.003,-0.12131 -0.008,-0.16543 -0.005,-0.0441 -0.0138,-0.0882 -0.0248,-0.13234 l -4.20538,-10.0083 -5.13254,3.97023 -1.55631,6.26967 c -0.0441,0.22057 -0.0662,0.39151 -0.0662,0.51282 -10e-6,0.35291 0.88301,0.52936 2.64905,0.52936 0.0883,0 0.16004,0.0414 0.21524,0.12407 0.0552,0.0827 0.0828,0.15716 0.0828,0.22333 l -0.13245,0.54591 c -0.0552,0.15439 -0.19317,0.2316 -0.41391,0.2316 l -8.44387,0 z m 28.74816,0.12997 c -0.36859,0 -0.68188,-0.0996 -0.93989,-0.29894 -0.258,-0.19931 -0.45205,-0.45709 -0.58213,-0.77337 -0.1301,-0.31628 -0.19514,-0.65422 -0.19514,-1.01383 0,-0.41593 0.0824,-0.85352 0.24717,-1.31278 0.16478,-0.45925 0.39135,-0.88492 0.6797,-1.27703 0.28837,-0.3921 0.62768,-0.71054 1.01794,-0.95534 0.39026,-0.24479 0.79787,-0.36718 1.22282,-0.36719 0.25584,1e-5 0.48783,0.0769 0.69597,0.23072 0.20813,0.15381 0.36641,0.35636 0.47482,0.60764 l 0.76101,-3.02198 c 0.0434,-0.19497 0.065,-0.31411 0.0651,-0.35744 -10e-6,-0.1603 -0.28403,-0.24045 -0.85208,-0.24047 -0.026,2e-5 -0.0499,-0.0162 -0.0715,-0.0488 -0.0217,-0.0325 -0.0325,-0.0661 -0.0325,-0.10073 l 0.052,-0.20797 c 0.0173,-0.0563 0.0542,-0.0845 0.11057,-0.0845 l 1.74318,-0.14298 c 0.0867,10e-6 0.13008,0.0433 0.13008,0.12998 l -1.91878,7.6817 c -10e-6,0.0563 -0.0152,0.16463 -0.0455,0.32494 -0.0303,0.16031 -0.0455,0.26862 -0.0455,0.32495 -10e-6,0.38993 0.13441,0.58489 0.40327,0.58489 0.19512,0 0.3599,-0.10073 0.49433,-0.30219 0.13442,-0.20147 0.23415,-0.40835 0.2992,-0.62065 0.065,-0.2123 0.13659,-0.48525 0.21464,-0.81886 0.0217,-0.0607 0.0542,-0.091 0.0976,-0.091 l 0.15611,0 c 0.026,0 0.0477,0.013 0.065,0.039 0.0173,0.026 0.026,0.0563 0.026,0.091 -0.14311,0.60223 -0.30789,1.08965 -0.49434,1.46225 -0.18646,0.37261 -0.48349,0.55891 -0.8911,0.55891 -0.2992,0 -0.56046,-0.0888 -0.78377,-0.26645 -0.22332,-0.17764 -0.35666,-0.41593 -0.40002,-0.71488 -0.23416,0.28162 -0.49867,0.51557 -0.79353,0.70188 -0.29488,0.1863 -0.59841,0.27945 -0.91062,0.27945 l 0,0 z m 0.026,-0.31844 c 0.21681,0 0.43254,-0.0617 0.64719,-0.18522 0.21464,-0.12348 0.41086,-0.28053 0.58864,-0.47117 0.17779,-0.19063 0.32956,-0.38344 0.45531,-0.5784 0.009,0 0.013,-0.013 0.013,-0.039 l 0.735,-2.905 c -0.0564,-0.32495 -0.17021,-0.60332 -0.34149,-0.83511 -0.17128,-0.23179 -0.40435,-0.34769 -0.69921,-0.34769 -0.44664,0 -0.83907,0.24912 -1.1773,0.74737 -0.33822,0.49825 -0.59948,1.08099 -0.78377,1.7482 -0.18429,0.66723 -0.27644,1.21963 -0.27644,1.65722 0,0.30761 0.0683,0.58598 0.20489,0.83511 0.13659,0.24912 0.34798,0.37368 0.63418,0.37368 l 0,0 z"
       style="font-style:normal;font-variant:normal;font-weight:normal;font-stretch:normal;font-size:56px;line-height:100%;font-family:Verdana;-inkscape-font-specification:Verdana;text-align:start;writing-mode:lr-tb;text-anchor:start;fill:#000000;fill-opacity:1;stroke:none" />
    <path
       style="font-style:normal;font-variant:normal;font-weight:normal;font-stretch:normal;font-size:56px;line-height:100%;font-family:Verdana;-inkscape-font-specification:Verdana;text-align:start;writing-mode:lr-tb;text-anchor:start;fill:#000000;fill-opacity:1;stroke:none"
       d="m 597.42186,672.83244 c -0.60788,0 -1.12458,-0.16435 -1.5501,-0.49304 -0.42552,-0.32869 -0.74555,-0.75385 -0.96009,-1.27548 -0.21455,-0.52162 -0.32182,-1.07897 -0.32182,-1.67205 0,-0.68596 0.13588,-1.40766 0.40764,-2.16509 0.27175,-0.75742 0.64542,-1.45947 1.121,-2.10615 0.47558,-0.64666 1.03518,-1.17185 1.67883,-1.57558 0.64363,-0.40372 1.31588,-0.60558 2.01673,-0.60559 0.42194,10e-6 0.80455,0.12684 1.14783,0.3805 0.34326,0.25368 0.6043,0.58773 0.78309,1.00216 l 1.2551,-4.984 c 0.0715,-0.32154 0.10726,-0.51804 0.10727,-0.58951 -10e-6,-0.26437 -0.46843,-0.39656 -1.40528,-0.39657 -0.0429,10e-6 -0.0822,-0.0268 -0.118,-0.0804 -0.0358,-0.0536 -0.0536,-0.10896 -0.0536,-0.16613 l 0.0858,-0.34299 c 0.0286,-0.0929 0.0894,-0.13932 0.18237,-0.13934 l 2.87492,-0.2358 c 0.14302,2e-5 0.21454,0.0715 0.21455,0.21437 l -3.16456,12.66901 c -10e-6,0.0929 -0.025,0.27153 -0.0751,0.53591 -0.0501,0.26439 -0.0751,0.44303 -0.0751,0.53592 -10e-6,0.6431 0.22169,0.96465 0.66509,0.96465 0.32181,0 0.59357,-0.16614 0.81527,-0.49841 0.22169,-0.33226 0.38618,-0.67346 0.49346,-1.02359 0.10727,-0.35013 0.22527,-0.8003 0.354,-1.35051 0.0357,-0.10003 0.0894,-0.15005 0.16092,-0.15005 l 0.25745,0 c 0.0429,0 0.0787,0.0214 0.10727,0.0643 0.0286,0.0429 0.0429,0.0929 0.0429,0.15006 -0.23601,0.99322 -0.50777,1.79709 -0.81528,2.41161 -0.30752,0.61451 -0.7974,0.92177 -1.46964,0.92177 -0.49346,0 -0.92434,-0.14648 -1.29264,-0.43945 -0.36831,-0.29297 -0.58822,-0.68597 -0.65973,-1.17901 -0.38619,0.46446 -0.82243,0.85032 -1.30873,1.15757 -0.48631,0.30726 -0.98692,0.46089 -1.50183,0.46089 l 0,0 z m 0.0429,-0.52519 c 0.35758,0 0.71336,-0.10183 1.06737,-0.30548 0.35399,-0.20364 0.6776,-0.46267 0.97082,-0.77707 0.29321,-0.3144 0.54351,-0.63238 0.75092,-0.95393 0.0143,0 0.0215,-0.0214 0.0215,-0.0643 l 1.21219,-4.79107 c -0.093,-0.53591 -0.28071,-0.99501 -0.56319,-1.3773 -0.28249,-0.38228 -0.66689,-0.57342 -1.15319,-0.57343 -0.73661,1e-5 -1.38383,0.41087 -1.94164,1.2326 -0.55783,0.82175 -0.98871,1.78282 -1.29264,2.88322 -0.30395,1.10042 -0.45592,2.01147 -0.45591,2.73316 -1e-5,0.50734 0.11263,0.96644 0.3379,1.3773 0.22528,0.41087 0.57391,0.61631 1.04592,0.61631 l 0,0 z m 11.70351,0.52519 c -1.02983,0 -1.83616,-0.38407 -2.41901,-1.15221 -0.58285,-0.76815 -0.87428,-1.68456 -0.87428,-2.74924 0,-1.02896 0.25209,-2.00432 0.75628,-2.9261 0.50418,-0.92176 1.19251,-1.66311 2.06501,-2.22404 0.87248,-0.56092 1.82006,-0.84138 2.84274,-0.84139 0.62217,10e-6 1.15854,0.16436 1.60909,0.49304 0.45055,0.32871 0.67582,0.78602 0.67583,1.37194 -10e-6,1.19331 -0.59001,1.95253 -1.77001,2.27764 -1.18001,0.32513 -2.60317,0.48769 -4.26947,0.48768 l -0.0429,0 c -0.21454,0.86462 -0.33254,1.61847 -0.354,2.26156 0,0.65739 0.15197,1.23439 0.45592,1.73101 0.30393,0.49661 0.75984,0.74492 1.36773,0.74492 0.86533,0 1.69491,-0.20723 2.48874,-0.62167 0.79381,-0.41444 1.45175,-0.97536 1.97383,-1.68277 0.0143,-0.0286 0.0572,-0.0429 0.12872,-0.0429 0.0787,0 0.15018,0.0358 0.21455,0.10718 0.0644,0.0715 0.0965,0.13934 0.0965,0.20365 0,0.0429 -0.007,0.0715 -0.0215,0.0858 -0.37188,0.50733 -0.81528,0.94678 -1.33018,1.31835 -0.51492,0.37156 -1.07989,0.65738 -1.69492,0.85746 -0.61504,0.20007 -1.24795,0.30011 -1.89874,0.30011 l 0,0 z m -1.29801,-5.78787 c 0.85819,0 1.64485,-0.0375 2.36001,-0.11254 0.71515,-0.075 1.36594,-0.27868 1.95238,-0.61095 0.58642,-0.33226 0.87963,-0.8378 0.87964,-1.51664 -10e-6,-0.25723 -0.0733,-0.48945 -0.21991,-0.69668 -0.14662,-0.20721 -0.33792,-0.3662 -0.57391,-0.47697 -0.23601,-0.11075 -0.49347,-0.16612 -0.77237,-0.16613 -0.92256,10e-6 -1.68956,0.34835 -2.30101,1.04503 -0.61146,0.6967 -1.05307,1.54166 -1.32483,2.53488 l 0,0 z m 12.7977,11.03983 c -1.04413,-0.9575 -1.81114,-2.12937 -2.30101,-3.5156 -0.48989,-1.38623 -0.73483,-2.86892 -0.73482,-4.44809 -10e-6,-1.32191 0.14303,-2.64384 0.42909,-3.96576 0.28606,-1.32192 0.708,-2.59918 1.26582,-3.83179 0.55782,-1.23259 1.25509,-2.37587 2.09183,-3.42985 0.83673,-1.05395 1.78788,-1.9525 2.85347,-2.69565 0.0286,-0.0286 0.0643,-0.0429 0.10727,-0.0429 l 0.21455,0 c 0.10726,10e-6 0.1609,0.0572 0.16091,0.17149 -1e-5,0.0715 -0.025,0.11792 -0.0751,0.13934 -0.97261,0.80746 -1.82722,1.76317 -2.56382,2.86714 -0.73662,1.104 -1.34629,2.29908 -1.82901,3.58527 -0.48274,1.2862 -0.84389,2.5974 -1.08346,3.93361 -0.23958,1.33621 -0.35937,2.65099 -0.35937,3.94433 0,3.00112 0.74734,5.34127 2.24201,7.02048 0.0429,0.0429 0.0644,0.0893 0.0644,0.13933 -10e-6,0.11433 -0.0536,0.17149 -0.16091,0.17149 l -0.21455,0 c -0.0429,0 -0.0787,-0.0143 -0.10727,-0.0429 l 0,0 z m 3.86183,-7.22412 c 0,-0.16435 0.0286,-0.37514 0.0858,-0.63238 l 1.57692,-6.34523 -2.32783,0 c -0.0429,1e-5 -0.0822,-0.0268 -0.118,-0.0804 -0.0357,-0.0536 -0.0536,-0.10896 -0.0536,-0.16613 l 0.0858,-0.34299 c 0.0286,-0.0929 0.0894,-0.13932 0.18236,-0.13933 l 2.41365,0 0.9011,-3.57991 c 0.0572,-0.20006 0.16269,-0.36262 0.31645,-0.48768 0.15376,-0.12503 0.33433,-0.18756 0.54173,-0.18757 0.16448,1e-5 0.30751,0.0518 0.4291,0.15541 0.12157,0.10363 0.18236,0.24118 0.18236,0.41266 0,0.0929 -0.007,0.15364 -0.0215,0.18221 l -0.87964,3.50488 2.28492,0 c 0.0501,10e-6 0.0912,0.0233 0.12337,0.0697 0.0322,0.0465 0.0483,0.0983 0.0483,0.15541 l -0.0858,0.35371 c -10e-6,0.10004 -0.0572,0.15006 -0.17164,0.15005 l -2.37073,0 -1.6091,6.40954 c -0.10013,0.41444 -0.15019,0.76457 -0.15018,1.05039 -10e-6,0.6431 0.21811,0.96465 0.65436,0.96465 0.45054,0 0.86355,-0.15185 1.23901,-0.45553 0.37545,-0.30369 0.69548,-0.67704 0.96009,-1.12006 0.2646,-0.44302 0.4863,-0.89676 0.6651,-1.36123 0.0286,-0.0572 0.0715,-0.0857 0.12872,-0.0857 l 0.25746,0 c 0.10727,0 0.1609,0.0715 0.16091,0.21437 -0.33613,0.8789 -0.7974,1.65418 -1.38383,2.32586 -0.58643,0.67168 -1.27655,1.00752 -2.07037,1.00752 -0.56497,0 -1.03876,-0.18757 -1.42137,-0.56271 -0.38261,-0.37514 -0.57391,-0.84496 -0.57391,-1.40945 l 0,0 z m 6.92985,7.26699 c -0.10012,0 -0.15018,-0.0572 -0.15018,-0.17149 0,-0.0786 0.0143,-0.12505 0.0429,-0.13933 0.98691,-0.8146 1.85225,-1.78282 2.59601,-2.90466 0.74376,-1.12185 1.35343,-2.31336 1.82901,-3.57455 0.47557,-1.26118 0.83136,-2.55452 1.06737,-3.88002 0.23599,-1.32549 0.35399,-2.64919 0.354,-3.97113 -10e-6,-0.8503 -0.0715,-1.69705 -0.21454,-2.54023 -0.14304,-0.84316 -0.38262,-1.64881 -0.71874,-2.41697 -0.33612,-0.76813 -0.77237,-1.45589 -1.30873,-2.06327 -0.0286,-0.0571 -0.0429,-0.1036 -0.0429,-0.13934 0,-0.11431 0.0501,-0.17148 0.15018,-0.17149 l 0.21455,0 c 0.0357,10e-6 0.0679,0.0143 0.0965,0.0429 0.70084,0.65026 1.27833,1.40411 1.73246,2.26156 0.45411,0.85748 0.78308,1.76496 0.98691,2.72245 0.20382,0.9575 0.30572,1.95431 0.30573,2.9904 -10e-6,1.76495 -0.25388,3.52632 -0.76164,5.28411 -0.50776,1.7578 -1.26046,3.38698 -2.2581,4.88754 -0.99764,1.50056 -2.20089,2.74745 -3.60975,3.74068 -0.0286,0.0286 -0.0608,0.0429 -0.0965,0.0429 l -0.21455,0 z"
       id="text3551"
       inkscape:connector-curvature="0" />
    <path
       style="fill:none;stroke:#000000;stroke-width:1.39999962;stroke-linecap:butt;stroke-linejoin:miter;stroke-miterlimit:4;stroke-dasharray:none;stroke-opacity:1"
       d="m 592.819,680.06575 46.19966,0"
       id="path3555"
       inkscape:connector-curvature="0" />
    <path
       style="font-style:normal;font-variant:normal;font-weight:normal;font-stretch:normal;font-size:56px;line-height:100%;font-family:Verdana;-inkscape-font-specification:Verdana;text-align:start;writing-mode:lr-tb;text-anchor:start;fill:#000000;fill-opacity:1;stroke:none"
       d="m 609.09013,699.15579 c -0.60789,0 -1.12459,-0.16435 -1.5501,-0.49304 -0.42552,-0.3287 -0.74555,-0.75386 -0.96009,-1.27548 -0.21455,-0.52162 -0.32182,-1.07897 -0.32182,-1.67206 0,-0.68596 0.13587,-1.40766 0.40763,-2.16509 0.27176,-0.75742 0.64543,-1.45946 1.12101,-2.10614 0.47557,-0.64666 1.03518,-1.17186 1.67883,-1.57559 0.64363,-0.40371 1.31587,-0.60557 2.01673,-0.60558 0.42194,1e-5 0.80454,0.12684 1.14783,0.3805 0.34326,0.25367 0.60429,0.58773 0.78309,1.00216 l 1.2551,-4.984 c 0.0715,-0.32154 0.10726,-0.51804 0.10727,-0.58951 -10e-6,-0.26437 -0.46844,-0.39656 -1.40528,-0.39658 -0.0429,2e-5 -0.0822,-0.0268 -0.118,-0.0804 -0.0358,-0.0536 -0.0537,-0.10895 -0.0536,-0.16613 l 0.0858,-0.34298 c 0.0286,-0.0929 0.0894,-0.13932 0.18237,-0.13934 l 2.87492,-0.23581 c 0.14302,2e-5 0.21453,0.0715 0.21455,0.21437 l -3.16457,12.66902 c 0,0.0929 -0.025,0.27153 -0.0751,0.53591 -0.0501,0.26439 -0.0751,0.44302 -0.0751,0.53592 -10e-6,0.64309 0.22169,0.96464 0.6651,0.96464 0.32181,0 0.59357,-0.16613 0.81527,-0.4984 0.22169,-0.33226 0.38618,-0.67347 0.49346,-1.0236 0.10726,-0.35012 0.22526,-0.80029 0.354,-1.3505 0.0357,-0.10003 0.0894,-0.15005 0.16091,-0.15006 l 0.25746,0 c 0.0429,10e-6 0.0787,0.0214 0.10727,0.0643 0.0286,0.0429 0.0429,0.0929 0.0429,0.15006 -0.23601,0.99323 -0.50777,1.7971 -0.81528,2.41162 -0.30752,0.61451 -0.7974,0.92177 -1.46964,0.92177 -0.49347,0 -0.92435,-0.14649 -1.29264,-0.43945 -0.36831,-0.29297 -0.58822,-0.68597 -0.65973,-1.17902 -0.38619,0.46447 -0.82244,0.85032 -1.30874,1.15758 -0.48631,0.30726 -0.98691,0.46089 -1.50182,0.46089 l 0,0 z m 0.0429,-0.5252 c 0.35757,0 0.71336,-0.10182 1.06737,-0.30547 0.35399,-0.20365 0.6776,-0.46267 0.97082,-0.77707 0.29321,-0.31441 0.54351,-0.63238 0.75091,-0.95393 0.0143,0 0.0215,-0.0214 0.0215,-0.0643 l 1.21219,-4.79108 c -0.093,-0.5359 -0.28071,-0.995 -0.56319,-1.3773 -0.28249,-0.38228 -0.66688,-0.57342 -1.15318,-0.57343 -0.73662,10e-6 -1.38383,0.41088 -1.94165,1.23261 -0.55782,0.82174 -0.9887,1.78281 -1.29264,2.88322 -0.30395,1.10041 -0.45592,2.01146 -0.45591,2.73316 -10e-6,0.50733 0.11263,0.96643 0.33791,1.3773 0.22527,0.41087 0.57391,0.6163 1.04591,0.6163 l 0,0 z m 8.74277,-1.44697 c 0,-0.16434 0.0286,-0.37514 0.0858,-0.63238 l 1.57692,-6.34522 -2.32783,0 c -0.0429,1e-5 -0.0822,-0.0268 -0.118,-0.0804 -0.0357,-0.0536 -0.0536,-0.10896 -0.0536,-0.16613 l 0.0858,-0.34299 c 0.0286,-0.0929 0.0894,-0.13932 0.18237,-0.13934 l 2.41364,0 0.9011,-3.5799 c 0.0572,-0.20006 0.16269,-0.36263 0.31646,-0.48769 0.15375,-0.12503 0.33433,-0.18755 0.54173,-0.18757 0.16448,2e-5 0.30751,0.0518 0.42909,0.15542 0.12157,0.10362 0.18236,0.24118 0.18236,0.41265 0,0.0929 -0.007,0.15364 -0.0215,0.18222 l -0.87964,3.50487 2.28492,0 c 0.0501,2e-5 0.0912,0.0232 0.12336,0.0697 0.0322,0.0465 0.0483,0.0983 0.0483,0.15542 l -0.0858,0.3537 c -10e-6,0.10005 -0.0572,0.15007 -0.17164,0.15006 l -2.37074,0 -1.60909,6.40953 c -0.10013,0.41445 -0.15019,0.76457 -0.15019,1.0504 0,0.64309 0.21812,0.96464 0.65437,0.96464 0.45054,0 0.86354,-0.15184 1.239,-0.45552 0.37545,-0.30369 0.69549,-0.67704 0.9601,-1.12007 0.2646,-0.44302 0.4863,-0.89676 0.66509,-1.36122 0.0286,-0.0572 0.0715,-0.0857 0.12873,-0.0857 l 0.25746,0 c 0.10726,10e-6 0.1609,0.0715 0.16091,0.21437 -0.33613,0.8789 -0.79741,1.65419 -1.38383,2.32587 -0.58643,0.67168 -1.27655,1.00752 -2.07037,1.00752 -0.56497,0 -1.03877,-0.18757 -1.42137,-0.56271 -0.38261,-0.37514 -0.57391,-0.84496 -0.57391,-1.40946 l 0,0 z"
       id="text3557"
       inkscape:connector-curvature="0" />
    <path
       style="font-style:normal;font-variant:normal;font-weight:normal;font-stretch:normal;font-size:56px;line-height:125%;font-family:Verdana;-inkscape-font-specification:Verdana;text-align:start;writing-mode:lr-tb;text-anchor:start;fill:#000000;fill-opacity:1;stroke:none;stroke-width:1px;stroke-linecap:butt;stroke-linejoin:miter;stroke-opacity:1"
       d="m 497.20696,678.01005 c -3e-5,2.60004 -0.56726,4.95671 -1.7017,7.07003 -1.13449,2.11332 -2.64391,3.75275 -4.52824,4.91827 -1.30755,0.80691 -2.76568,1.38968 -4.37442,1.7483 -1.60878,0.35863 -3.72709,0.53794 -6.35493,0.53794 l -7.22981,0 0,-28.60671 7.1529,0 c 2.79449,3e-5 5.01535,0.20176 6.66258,0.60518 1.6472,0.40348 3.04124,0.95743 4.18213,1.66184 1.94843,1.21679 3.46747,2.837 4.55709,4.86064 1.08957,2.02369 1.63437,4.42518 1.6344,7.20451 l 0,0 z m -3.98025,-0.0576 c -2e-5,-2.24139 -0.39099,-4.13057 -1.17291,-5.66755 -0.78198,-1.53695 -1.94848,-2.74729 -3.49954,-3.63108 -1.12807,-0.64037 -2.32663,-1.08544 -3.59568,-1.33524 -1.26908,-0.24972 -2.7881,-0.3746 -4.55708,-0.37462 l -3.57645,0 0,22.07462 3.57645,0 c 1.83307,0 3.43222,-0.13449 4.79744,-0.40347 1.36518,-0.26896 2.61822,-0.76846 3.75911,-1.49853 1.42287,-0.90937 2.49004,-2.10691 3.20151,-3.59265 0.71142,-1.48571 1.06713,-3.34288 1.06715,-5.57148 l 0,0 z"
       id="text3574"
       inkscape:connector-curvature="0" />
    <circle
       style="fill:#00000f;fill-opacity:0.94117647;stroke:#000000;stroke-width:9.51715279;stroke-linecap:round;stroke-linejoin:round;stroke-miterlimit:4;stroke-dasharray:none;stroke-dashoffset:0;stroke-opacity:1"
       id="path3582"
       transform="matrix(0.34961644,0,0,0.34932201,673.19806,480.80201)"
       cx="217.44653"
       cy="268.04639"
       r="100.55331" />
    <circle
       style="fill:#ffdd55;fill-opacity:1;stroke:#000000;stroke-width:9.51715279;stroke-linecap:round;stroke-linejoin:round;stroke-miterlimit:4;stroke-dasharray:none;stroke-dashoffset:0;stroke-opacity:1"
       id="path3584"
       transform="matrix(0.34961644,0,0,0.34932201,671.14182,479.12582)"
       cx="217.44653"
       cy="268.04639"
       r="100.55331" />
    <path
       style="font-style:normal;font-variant:normal;font-weight:normal;font-stretch:normal;font-size:56px;line-height:100%;font-family:Verdana;-inkscape-font-specification:Verdana;text-align:start;writing-mode:lr-tb;text-anchor:start;fill:#000000;fill-opacity:1;stroke:none;stroke-width:1px;stroke-linecap:butt;stroke-linejoin:miter;stroke-opacity:1"
       d="m 750.98711,572.20359 c 0.0388,0.0775 0.0258,0.15501 -0.0388,0.23249 l -12.35185,14.80199 17.08314,0 c 0.0517,0 0.097,-0.0129 0.13579,-0.0387 0.0387,-0.0258 0.0582,-0.0646 0.0582,-0.11626 l 0.91135,-4.01048 c 0,-0.0258 0.0193,-0.0581 0.0582,-0.0969 0.0387,-0.0388 0.097,-0.0581 0.17454,-0.0581 l 1.16345,0 c 0.15505,0 0.23262,0.0646 0.23268,0.19375 l 0,6.93601 c -6e-5,0.14206 -0.0776,0.2131 -0.23268,0.21311 l -23.67602,0 c -0.12926,-10e-6 -0.19389,-0.0711 -0.19389,-0.21311 l 0,-0.79436 c 0,-0.0517 0.0129,-0.0904 0.0388,-0.11625 l 12.91418,-15.51883 c 0.0517,-0.0775 0.0517,-0.155 0,-0.2325 l -12.2744,-16.6232 c 0,-0.0258 -0.006,-0.0452 -0.0194,-0.0581 -0.0129,-0.0129 -0.0194,-0.0323 -0.0194,-0.0581 l 0,-0.83309 c 0,-0.12914 0.0646,-0.19372 0.19391,-0.19374 l 22.16351,0 c 0.15513,2e-5 0.23269,0.0646 0.23269,0.19374 l 0,6.21916 c 0,0.1421 -0.0776,0.21314 -0.23269,0.21312 l -1.08589,0 c -0.0775,2e-5 -0.13571,-0.0129 -0.17446,-0.0388 -0.0388,-0.0258 -0.0582,-0.0646 -0.0582,-0.11624 l -1.18279,-4.49485 c -8e-5,-0.0516 -0.0194,-0.0904 -0.0582,-0.11626 -0.0388,-0.0258 -0.0712,-0.0387 -0.097,-0.0387 l -14.62057,0 10.95573,14.76324 0,0 z"
       id="path3586"
       inkscape:connector-curvature="0" />
    <path
       style="fill:#000000;fill-opacity:1;fill-rule:evenodd;stroke:none;stroke-width:2.29999948;stroke-linecap:butt;stroke-linejoin:miter;stroke-miterlimit:4;stroke-dasharray:none;stroke-opacity:1"
       d="m 655.4506,462.98048 0,2.08311 c 46.35422,0 69.55381,0 81.14237,0 5.79428,0 8.68715,0 10.13571,0 0.72428,0 1.09297,0 1.27405,0 0.0905,0 0.11893,0 0.14156,0 0.0113,0 0.0255,0 0.0283,0 l 0,-1.04156 0,-1.04155 c 0,0 -0.0136,10e-6 -92.722,0 z"
       id="path3588"
       inkscape:connector-curvature="0" />
    <path
       style="font-style:normal;font-variant:normal;font-weight:normal;font-stretch:normal;font-size:56px;line-height:100%;font-family:Verdana;-inkscape-font-specification:Verdana;text-align:start;writing-mode:lr-tb;text-anchor:start;fill:#000000;fill-opacity:1;stroke:none;stroke-width:1px;stroke-linecap:butt;stroke-linejoin:miter;stroke-opacity:1"
       d="m 345.56316,560.7785 c -1.4943,0 -2.66433,-0.5573 -3.51006,-1.6719 -0.84574,-1.11459 -1.2686,-2.44434 -1.2686,-3.98924 0,-1.49303 0.36579,-2.90832 1.09738,-4.24585 0.73158,-1.33752 1.73038,-2.41323 2.9964,-3.22716 1.26599,-0.81391 2.64097,-1.22087 4.1249,-1.22089 0.90281,2e-5 1.68109,0.23849 2.33486,0.71543 0.65375,0.47696 0.98063,1.14053 0.98063,1.99072 0,1.73154 -0.85611,2.83317 -2.56833,3.30493 -1.71224,0.47177 -3.77728,0.70765 -6.19515,0.70764 l -0.0623,0 c -0.31132,1.25459 -0.48255,2.34845 -0.51367,3.2816 -10e-6,0.9539 0.22051,1.79114 0.66154,2.51174 0.44102,0.72061 1.10257,1.08091 1.98463,1.0809 1.25563,10e-6 2.45937,-0.30068 3.61124,-0.90204 1.15185,-0.60136 2.10655,-1.41528 2.86409,-2.44176 0.0207,-0.0415 0.083,-0.0622 0.18679,-0.0622 0.11413,0 0.2179,0.0518 0.31131,0.15553 0.0934,0.10369 0.14008,0.20219 0.14009,0.2955 -10e-6,0.0622 -0.0104,0.10369 -0.0311,0.12442 -0.53962,0.73616 -1.18301,1.37382 -1.93014,1.91297 -0.74717,0.53916 -1.56696,0.95389 -2.45939,1.24421 -0.89244,0.29031 -1.81081,0.43546 -2.75513,0.43546 l 0,0 z m -1.88344,-8.39839 c 1.24524,1e-5 2.38673,-0.0544 3.42445,-0.16331 1.0377,-0.10885 1.98202,-0.40435 2.83296,-0.88649 0.85091,-0.48213 1.27637,-1.21569 1.27638,-2.2007 -10e-6,-0.37325 -0.10637,-0.71022 -0.3191,-1.01092 -0.21273,-0.30066 -0.49033,-0.53135 -0.83276,-0.69208 -0.34245,-0.1607 -0.71603,-0.24105 -1.12072,-0.24107 -1.33867,2e-5 -2.45161,0.50548 -3.33885,1.51638 -0.88725,1.01094 -1.52804,2.23699 -1.92236,3.67819 l 0,0 z m 18.56987,16.01916 c -1.51506,-1.38936 -2.62801,-3.08978 -3.33884,-5.10124 -0.71084,-2.01147 -1.06625,-4.16291 -1.06625,-6.45433 0,-1.91814 0.20754,-3.8363 0.62263,-5.75445 0.41508,-1.91815 1.02733,-3.7715 1.83675,-5.56006 0.8094,-1.78852 1.82119,-3.44747 3.03531,-4.97683 1.21412,-1.52931 2.59428,-2.83313 4.14048,-3.91148 0.0415,-0.0414 0.0934,-0.0622 0.15565,-0.0622 l 0.31132,0 c 0.15564,3e-5 0.23347,0.083 0.23348,0.24885 -10e-6,0.1037 -0.0363,0.1711 -0.10895,0.20219 -1.41131,1.17164 -2.65138,2.55841 -3.72021,4.1603 -1.06885,1.60195 -1.95351,3.33605 -2.65395,5.20236 -0.70046,1.86632 -1.22451,3.76891 -1.57213,5.7078 -0.34764,1.93889 -0.52146,3.84667 -0.52145,5.72335 -10e-6,4.35473 1.0844,7.75036 3.25323,10.18694 0.0623,0.0622 0.0934,0.12959 0.0934,0.20218 -1e-5,0.16589 -0.0778,0.24883 -0.23349,0.24885 l -0.31132,0 c -0.0623,-2e-5 -0.11414,-0.0208 -0.15565,-0.0622 l 0,0 z m 5.60365,-10.48244 c 0,-0.23847 0.0415,-0.54434 0.12453,-0.9176 l 2.28816,-9.20713 -3.37776,0 c -0.0623,10e-6 -0.11933,-0.0389 -0.17123,-0.11665 -0.0519,-0.0777 -0.0778,-0.15811 -0.0778,-0.24107 l 0.12453,-0.49768 c 0.0415,-0.13477 0.12971,-0.20216 0.26461,-0.20218 l 3.50228,0 1.30753,-5.19457 c 0.083,-0.29029 0.23607,-0.52618 0.45918,-0.70764 0.2231,-0.18143 0.48513,-0.27215 0.78607,-0.27217 0.23867,2e-5 0.44622,0.0752 0.62263,0.22551 0.1764,0.15037 0.26461,0.34996 0.26462,0.59878 -1e-5,0.1348 -0.0104,0.22294 -0.0311,0.26439 l -1.2764,5.0857 3.3155,0 c 0.0726,2e-5 0.13229,0.0337 0.179,0.10109 0.0467,0.0674 0.07,0.14258 0.0701,0.22551 l -0.12452,0.51324 c -2e-5,0.14517 -0.083,0.21775 -0.24905,0.21774 l -3.44002,0 -2.33486,9.30045 c -0.14528,0.60136 -0.21792,1.10941 -0.21792,1.52415 0,0.93315 0.3165,1.39973 0.94951,1.39972 0.65376,10e-6 1.25303,-0.22032 1.79784,-0.66097 0.54479,-0.44066 1.00916,-0.98241 1.39313,-1.62525 0.38394,-0.64284 0.70564,-1.30123 0.96507,-1.97518 0.0415,-0.0829 0.10376,-0.12442 0.18679,-0.12442 l 0.37357,0 c 0.15565,0 0.23348,0.10369 0.23349,0.31105 -0.48773,1.27532 -1.15706,2.40029 -2.00797,3.37491 -0.85094,0.97463 -1.85233,1.46194 -3.00418,1.46194 -0.8198,0 -1.50728,-0.27217 -2.06246,-0.8165 -0.55518,-0.54435 -0.83277,-1.22607 -0.83277,-2.04517 l 0,0 z m 10.05545,10.54466 c -0.14529,-2e-5 -0.21793,-0.083 -0.21793,-0.24885 0,-0.11406 0.0208,-0.18145 0.0623,-0.20218 1.43204,-1.182 2.68767,-2.58692 3.7669,-4.21475 1.07922,-1.62784 1.96387,-3.35676 2.65395,-5.18679 0.69008,-1.83002 1.20634,-3.70669 1.54879,-5.63004 0.34243,-1.92332 0.51365,-3.84407 0.51367,-5.76223 -2e-5,-1.23383 -0.10379,-2.46248 -0.31132,-3.68597 -0.20755,-1.22345 -0.55518,-2.39248 -1.04289,-3.5071 -0.48774,-1.11458 -1.12074,-2.11255 -1.89903,-2.99387 -0.0415,-0.0829 -0.0623,-0.15032 -0.0623,-0.20219 0,-0.16587 0.0726,-0.24882 0.21792,-0.24885 l 0.31132,0 c 0.0519,3e-5 0.0986,0.0208 0.14009,0.0622 1.01695,0.94356 1.8549,2.03742 2.51386,3.2816 0.65894,1.24423 1.13628,2.56102 1.43204,3.95036 0.29574,1.38939 0.44361,2.83577 0.44362,4.33917 -10e-6,2.561 -0.36839,5.11682 -1.10516,7.66743 -0.73679,2.55063 -1.82897,4.91462 -3.27658,7.09198 -1.44762,2.17736 -3.19357,3.98664 -5.23785,5.42785 -0.0415,0.0415 -0.0882,0.0622 -0.1401,0.0622 l -0.31131,0 z"
       id="text3590"
       inkscape:connector-curvature="0" />
    <path
       inkscape:connector-curvature="0"
       id="path4632"
       d="m 657.13964,572.5971 0,2.05496 c 26.13997,-10e-6 39.20897,0 45.74396,0 3.2675,0 4.8976,0 5.71448,0 0.40843,0 0.62979,0 0.7319,0 0.0511,0 0.0717,0 0.0844,0 l 0,-1.01341 0,-1.04155 c 0,0 0.005,-2e-5 -52.27479,0 z"
       style="fill:#000000;fill-opacity:1;fill-rule:evenodd;stroke:none" />
    <path
       inkscape:connector-curvature="0"
       id="path8135"
       style="font-size:12px;fill-rule:evenodd;stroke-width:0.625;stroke-linejoin:round"
       d="m 687.2702,564.4339 24.90044,9.15653 -24.90044,9.15652 c 3.97805,-5.406 3.95512,-12.80236 0,-18.31305 z" />
    <path
       style="fill:#000000;fill-opacity:1;fill-rule:evenodd;stroke:none;stroke-width:2.29999948;stroke-linecap:butt;stroke-linejoin:miter;stroke-miterlimit:4;stroke-dasharray:none;stroke-opacity:1"
       d="m 655.0002,680.77801 0,2.05496 c 47.00533,0 70.50334,0 82.25467,0 5.87567,0 8.83404,0 10.30295,0 0.73446,0 1.08314,0 1.26676,0 0.0918,0 0.14594,0 0.1689,0 0.0115,0 0.0253,0 0.0281,0 l 0,-1.04156 0,-1.0134 c 0,0 -0.0108,10e-6 -94.02143,0 z"
       id="path4721"
       inkscape:connector-curvature="0" />
    <path
       inkscape:connector-curvature="0"
       id="path4723"
       d="m 747.1919,613.25643 c 0,0 0,-0.0173 0,69.18582 l 2.05496,0 c 0,-34.60157 0,-51.88026 0,-60.53065 0,-4.3252 0,-6.49197 0,-7.57327 0,-0.54065 0,-0.80803 0,-0.94319 0,-0.0676 0,-0.12181 0,-0.13871 l -1.0134,0 -1.04156,0 z"
       style="fill:#000000;fill-opacity:1;fill-rule:evenodd;stroke:none" />
    <path
       inkscape:connector-curvature="0"
       id="path8127"
       style="font-size:12px;fill-rule:evenodd;stroke-width:0.625;stroke-linejoin:round"
       d="m 739.02834,635.07924 9.15653,-24.53847 9.15652,24.53847 c -5.40601,-3.92022 -12.80236,-3.89764 -18.31305,0 z" />
    <path
       style="font-style:normal;font-weight:normal;font-size:28px;font-family:'Bitstream Vera Sans';fill:#000000;fill-opacity:1;stroke:none;stroke-width:1px;stroke-linecap:butt;stroke-linejoin:miter;stroke-opacity:1"
       d="m 724.17904,534.80818 0,-6.61991 -6.57605,0 0,-2.76653 6.57605,0 0,-6.57051 2.80183,0 0,6.57051 6.57605,0 0,2.76653 -6.57605,0 0,6.61991 -2.80183,0 z"
       id="text7079"
       inkscape:connector-curvature="0" />
    <g
       id="g2515"
       transform="translate(54,0)">
      <rect
         style="fill:#000000;fill-opacity:1;stroke:#000000;stroke-width:2.49999976;stroke-linecap:round;stroke-linejoin:round;stroke-miterlimit:4;stroke-dasharray:none;stroke-dashoffset:0;stroke-opacity:1"
         id="rect7089"
         width="135.67393"
         height="62.368107"
         x="825.07281"
         y="544.75092" />
      <rect
         y="540.901"
         x="821.21967"
         height="62.368107"
         width="135.67393"
         id="rect7083"
         style="fill:#f2f2f2;fill-opacity:1;stroke:#000000;stroke-width:2.49999976;stroke-linecap:round;stroke-linejoin:round;stroke-miterlimit:4;stroke-dasharray:none;stroke-dashoffset:0;stroke-opacity:1" />
      <text
         xml:space="preserve"
         style="font-style:normal;font-weight:bold;font-size:24px;line-height:87.99999952%;font-family:Sans;-inkscape-font-specification:'Sans Bold';letter-spacing:0px;word-spacing:0px;fill:#000000;fill-opacity:1;stroke:none"
         x="835.46851"
         y="569.25275"
         id="text3133"
         sodipodi:linespacing="88%"><tspan
           sodipodi:role="line"
           id="tspan3135"
           x="835.46851"
           y="569.25275"
           style="font-weight:bold;font-size:24px;line-height:87.99999952%;-inkscape-font-specification:'Sans Bold'">Plant /</tspan><tspan
           sodipodi:role="line"
           x="835.46851"
           y="590.37274"
           style="font-weight:bold;font-size:24px;line-height:87.99999952%;-inkscape-font-specification:'Sans Bold'"
           id="tspan3137">Process</tspan></text>
    </g>
    <path
       style="fill:#000000;fill-opacity:1;fill-rule:evenodd;stroke:none;stroke-width:2.29999995;stroke-linecap:butt;stroke-linejoin:miter;stroke-miterlimit:4;stroke-dasharray:none;stroke-opacity:1"
       d="m 1030.6583,574.70833 c 0,101.38946 0,152.08288 0,177.43025 0,12.67368 0,19.01388 0,22.1823 0,1.58421 0,2.39081 0,2.78686 0,0.19803 0,0.2883 0,0.3378 0,0.0248 0,0.022 0,0.0281 0,0.003 0,0.0274 0,0.0281 l 2.055,0 c 0,0 0,-0.0146 0,-202.79351 l -2.055,0 z"
       id="path7109"
       inkscape:connector-curvature="0" />
    <path
       inkscape:connector-curvature="0"
       id="path7634"
       d="m 281.02578,615.10379 c 0,0 10e-6,-0.006 0,162.84849 l 2.08311,0 c 1e-5,-81.42747 0,-122.13908 0,-142.49595 0,-10.17844 0,-15.27442 0,-17.81903 0,-1.2723 0,-1.90579 0,-2.22386 0,-0.15904 0,-0.24174 0,-0.2815 0,-0.0199 0,-0.0231 0,-0.0281 l -2.08311,0 z"
       style="fill:#000000;fill-opacity:1;fill-rule:evenodd;stroke:none" />
    <path
       inkscape:connector-curvature="0"
       id="path8119"
       style="font-size:12px;fill-rule:evenodd;stroke-width:0.625;stroke-linejoin:round"
       d="m 272.87312,637.25442 9.15653,-24.90045 9.15652,24.90045 c -5.40601,-3.97805 -12.80237,-3.95514 -18.31305,0 z" />
    <path
       style="font-style:normal;font-variant:normal;font-weight:normal;font-stretch:normal;font-size:56px;line-height:125%;font-family:Verdana;-inkscape-font-specification:Verdana;text-align:start;writing-mode:lr-tb;text-anchor:start;fill:#000000;fill-opacity:1;stroke:none;stroke-width:1px;stroke-linecap:butt;stroke-linejoin:miter;stroke-opacity:1"
       d="m 262.80399,623.24501 -11.9984,0 0,-3.47737 11.9984,0 0,3.47737 z"
       id="text7640"
       inkscape:connector-curvature="0" />
    <path
       inkscape:connector-curvature="0"
       id="path2489"
       d="m 748.10792,533.72806 c 0,0 0,0.0176 0,-70.20642 l -2.05496,0 c 0,35.112 0,52.64558 0,61.42358 0,4.389 0,6.58773 0,7.68499 0,0.54862 0,0.81994 0,0.9571 0,0.0685 0,0.12361 0,0.14075 l 1.0134,0 1.04156,0 z"
       style="fill:#000000;fill-opacity:1;fill-rule:evenodd;stroke:none" />
    <path
       inkscape:connector-curvature="0"
       id="path2491"
       style="font-size:12px;fill-rule:evenodd;stroke-width:0.625;stroke-linejoin:round"
       d="m 756.27148,511.58333 -9.15653,24.90045 -9.15652,-24.90045 c 5.40601,3.97805 12.80237,3.95514 18.31305,0 z" />
    <path
       style="font-style:normal;font-variant:normal;font-weight:normal;font-stretch:normal;font-size:56px;line-height:100%;font-family:Verdana;-inkscape-font-specification:Verdana;text-align:start;writing-mode:lr-tb;text-anchor:start;fill:#000000;fill-opacity:1;stroke:none;stroke-width:1px;stroke-linecap:butt;stroke-linejoin:miter;stroke-opacity:1"
       d="m 567.03766,596.48083 c -0.5127,0 -0.88404,-0.17944 -1.11401,-0.53833 -0.22999,-0.35888 -0.34498,-0.80639 -0.34498,-1.34252 0,-0.57129 0.0857,-1.19824 0.25708,-1.88086 0.17139,-0.68262 0.40943,-1.22607 0.71412,-1.63037 0.18456,-0.24023 0.41088,-0.43066 0.67895,-0.57129 0.26806,-0.14062 0.54565,-0.21094 0.83276,-0.21094 0.50977,0 0.88037,0.18164 1.11182,0.54492 0.23144,0.36329 0.34716,0.81446 0.34717,1.35352 -10e-6,0.36914 -0.0366,0.77344 -0.10986,1.21289 -0.0733,0.43945 -0.18385,0.86426 -0.33179,1.27441 -0.14795,0.41016 -0.32447,0.74854 -0.52954,1.01514 -0.18458,0.23437 -0.41089,0.42187 -0.67896,0.5625 -0.26807,0.14062 -0.54565,0.21093 -0.83276,0.21093 l 0,0 z m 0.0352,-0.21533 c 0.2959,0 0.54419,-0.10473 0.74488,-0.31421 0.20068,-0.20947 0.35668,-0.46875 0.46802,-0.77783 0.11132,-0.30908 0.18969,-0.58593 0.2351,-0.83056 0.0454,-0.24463 0.10474,-0.59986 0.17798,-1.06568 0.12597,-0.71484 0.18896,-1.26415 0.18897,-1.64795 -10e-6,-0.20507 -0.0278,-0.38964 -0.0835,-0.55371 -0.0557,-0.16406 -0.14869,-0.29736 -0.27905,-0.3999 -0.13038,-0.10253 -0.29664,-0.1538 -0.49878,-0.15381 -0.29004,10e-6 -0.53248,0.0945 -0.7273,0.28345 -0.19482,0.18897 -0.34717,0.427 -0.45703,0.71411 -0.10986,0.28711 -0.18164,0.52076 -0.21533,0.70093 -0.0337,0.18018 -0.096,0.53247 -0.18677,1.05688 -0.0615,0.38086 -0.11279,0.72876 -0.15381,1.0437 -0.041,0.31495 -0.0615,0.58228 -0.0615,0.802 0,0.19922 0.0264,0.38453 0.0791,0.55591 0.0527,0.17139 0.14282,0.31202 0.27027,0.42188 0.12744,0.10986 0.29369,0.16479 0.49877,0.16479 l 0,0 z"
       id="text2503"
       inkscape:connector-curvature="0" />
    <path
       style="font-style:normal;font-variant:normal;font-weight:normal;font-stretch:normal;font-size:56px;line-height:100%;font-family:Verdana;-inkscape-font-specification:Verdana;text-align:start;writing-mode:lr-tb;text-anchor:start;fill:#000000;fill-opacity:1;stroke:none;stroke-width:1px;stroke-linecap:butt;stroke-linejoin:miter;stroke-opacity:1"
       d="m 568.21692,548.77936 c 0,-0.13346 0.007,-0.23438 0.0195,-0.30274 l 0.45898,-2.75879 -0.83007,0 0.0391,-0.23925 c 0.29297,0 0.55094,-0.0993 0.77392,-0.29785 0.22298,-0.19857 0.40039,-0.44271 0.53223,-0.73243 0.13183,-0.2897 0.22705,-0.59081 0.28565,-0.90332 l 0.25878,0 -0.30761,1.84082 1.38672,0 -0.0586,0.33203 -1.38183,0 -0.46875,2.78809 c -0.013,0.0781 -0.0261,0.20182 -0.0391,0.37109 0,0.1823 0.0399,0.33773 0.11963,0.46631 0.0797,0.12858 0.20589,0.19287 0.37842,0.19287 0.20182,0 0.38249,-0.10253 0.54199,-0.30761 0.0716,-0.10091 0.12126,-0.18392 0.14893,-0.24903 0.0277,-0.0651 0.0545,-0.14974 0.0806,-0.2539 0.026,-0.10417 0.0521,-0.19043 0.0781,-0.25879 l 0.0928,-0.58106 0.25879,0 -0.0976,0.61035 c -0.0293,0.19857 -0.0977,0.4004 -0.20508,0.60547 -0.10743,0.20508 -0.24415,0.37191 -0.41016,0.50049 -0.16602,0.12858 -0.35156,0.19287 -0.55664,0.19287 -0.33854,0 -0.60628,-0.0871 -0.80322,-0.26123 -0.19694,-0.17415 -0.29541,-0.42562 -0.29541,-0.75439 l 0,0 z"
       id="text2507"
       inkscape:connector-curvature="0" />
    <g
       transform="translate(525.90025,280.3842)"
       inkscape:label="2"
       id="layer2-2" />
    <text
       xml:space="preserve"
       style="font-style:normal;font-variant:normal;font-weight:normal;font-stretch:normal;font-size:56px;line-height:100%;font-family:Verdana;-inkscape-font-specification:Verdana;text-align:start;writing-mode:lr-tb;text-anchor:start;fill:#000000;fill-opacity:1;stroke:none"
       x="410.29987"
       y="596.43451"
       id="text3836-9"
       sodipodi:linespacing="100%"><tspan
         sodipodi:role="line"
         id="tspan3838-8"
         x="410.29987"
         y="596.43451"
         style="font-style:normal;font-variant:normal;font-weight:normal;font-stretch:normal;font-size:56px;line-height:100%;font-family:'Courier New';-inkscape-font-specification:'Courier New';text-align:start;writing-mode:lr-tb;text-anchor:start" /></text>
    <text
       xml:space="preserve"
       style="font-style:normal;font-variant:normal;font-weight:normal;font-stretch:normal;font-size:56px;line-height:125%;font-family:Verdana;-inkscape-font-specification:Verdana;text-align:start;writing-mode:lr-tb;text-anchor:start;fill:#000000;fill-opacity:1;stroke:none"
       x="823.31757"
       y="469.71475"
       id="text3333-1"
       sodipodi:linespacing="125%"><tspan
         sodipodi:role="line"
         id="tspan3335-4"
         x="823.31757"
         y="469.71475" /></text>
    <g
       style="font-style:normal;font-variant:normal;font-weight:normal;font-stretch:normal;letter-spacing:normal;word-spacing:normal;text-anchor:start;fill:none;stroke:#000000;stroke-linecap:butt;stroke-linejoin:miter;stroke-miterlimit:10.43299961;stroke-dasharray:none;stroke-dashoffset:0;stroke-opacity:1"
       id="content"
       transform="matrix(3.1346032,0,0,-2.946566,-541.18351,2495.2437)"
       xml:space="preserve"
       stroke-miterlimit="10.433"
       font-style="normal"
       font-variant="normal"
       font-weight="normal"
       font-stretch="normal"
       font-size-adjust="none"
       letter-spacing="normal"
       word-spacing="normal"
       ns0:text="$r(t)$"
       ns0:preamble=""><path
         style="fill:#000000;stroke-width:0"
         inkscape:connector-curvature="0"
         d="m 224.31,657.82 0,-0.01 -0.01,-0.02 0,-0.01 0,-0.02 -0.01,-0.03 -0.01,-0.03 -0.01,-0.03 0,-0.04 -0.01,-0.03 -0.01,-0.03 0,-0.01 -0.01,-0.02 0,-0.01 0,-0.02 0,-0.01 -0.01,-0.01 0,-0.02 0,-0.01 0,-0.01 -0.01,-0.01 0,-0.01 0,-0.01 0,-0.01 0,0 0,-0.01 0,-0.01 c 0,-0.17 0.14,-0.26 0.29,-0.26 0.12,0 0.29,0.08 0.37,0.27 0.02,0.04 0.35,1.39 0.39,1.57 0.08,0.33 0.26,1.03 0.32,1.3 0.04,0.12 0.32,0.59 0.56,0.81 0.08,0.07 0.37,0.33 0.79,0.33 0.26,0 0.41,-0.12 0.42,-0.12 -0.3,-0.05 -0.51,-0.29 -0.51,-0.55 0,-0.16 0.1,-0.35 0.37,-0.35 0.27,0 0.55,0.23 0.55,0.59 0,0.35 -0.32,0.65 -0.83,0.65 -0.64,0 -1.08,-0.49 -1.27,-0.77 -0.08,0.45 -0.44,0.77 -0.91,0.77 -0.45,0 -0.64,-0.39 -0.73,-0.57 -0.18,-0.34 -0.31,-0.93 -0.31,-0.96 0,-0.1 0.1,-0.1 0.12,-0.1 0.1,0 0.11,0.01 0.17,0.22 0.17,0.71 0.37,1.19 0.73,1.19 0.16,0 0.3,-0.08 0.3,-0.46 0,-0.21 -0.03,-0.32 -0.16,-0.83 z"
         id="path3177" /><path
         style="fill:#000000;stroke-width:0"
         inkscape:connector-curvature="0"
         d="m 231.5,654.85 0,0.01 0,0 0,0 0,0.01 0,0 -0.01,0 0,0.01 0,0 0,0 0,0.01 0,0 -0.01,0.01 0,0 0,0.01 -0.01,0 0,0.01 -0.01,0.01 0,0 -0.01,0.01 0,0 0,0.01 -0.01,0 0,0 -0.01,0.01 0,0 0,0.01 -0.01,0 0,0.01 -0.01,0 0,0.01 -0.01,0 0,0.01 -0.01,0.01 -0.01,0 0,0.01 -0.01,0.01 -0.01,0 0,0.01 -0.01,0.01 -0.01,0 0,0.01 -0.01,0.01 c -1.25,1.25 -1.56,3.13 -1.56,4.65 0,1.73 0.37,3.45 1.6,4.7 0.13,0.12 0.13,0.14 0.13,0.17 0,0.07 -0.04,0.09 -0.1,0.09 -0.1,0 -1,-0.67 -1.58,-1.93 -0.51,-1.09 -0.63,-2.2 -0.63,-3.03 0,-0.78 0.11,-1.98 0.66,-3.1 0.59,-1.22 1.45,-1.87 1.55,-1.87 0.06,0 0.1,0.03 0.1,0.1 z"
         id="path3179" /><path
         style="fill:#000000;stroke-width:0"
         inkscape:connector-curvature="0"
         d="m 234.13,661.21 0.93,0 c 0.2,0 0.3,0 0.3,0.2 0,0.11 -0.1,0.11 -0.28,0.11 l -0.87,0 c 0.36,1.41 0.41,1.61 0.41,1.66 0,0.17 -0.12,0.27 -0.29,0.27 -0.03,0 -0.31,-0.01 -0.4,-0.35 l -0.39,-1.58 -0.94,0 c -0.19,0 -0.29,0 -0.29,-0.19 0,-0.12 0.08,-0.12 0.28,-0.12 l 0.87,0 c -0.72,-2.82 -0.75,-2.99 -0.75,-3.17 0,-0.54 0.37,-0.91 0.91,-0.91 1.01,0 1.58,1.45 1.58,1.53 0,0.1 -0.08,0.1 -0.12,0.1 -0.09,0 -0.1,-0.04 -0.15,-0.14 -0.42,-1.04 -0.95,-1.28 -1.29,-1.28 -0.21,0 -0.31,0.13 -0.31,0.46 0,0.24 0.02,0.31 0.06,0.48 z"
         id="path3181" /><path
         style="fill:#000000;stroke-width:0"
         inkscape:connector-curvature="0"
         d="m 238.55,659.72 0,0.07 0,0.08 0,0.08 0,0.08 -0.01,0.17 -0.01,0.17 -0.02,0.18 -0.02,0.19 -0.03,0.2 -0.03,0.2 -0.04,0.2 -0.05,0.21 -0.05,0.21 -0.06,0.21 -0.07,0.21 -0.08,0.21 -0.04,0.11 -0.05,0.11 -0.04,0.1 -0.05,0.11 c -0.6,1.22 -1.46,1.86 -1.56,1.86 -0.06,0 -0.1,-0.03 -0.1,-0.09 0,-0.03 0,-0.05 0.19,-0.23 0.98,-0.99 1.54,-2.57 1.54,-4.64 0,-1.7 -0.36,-3.45 -1.6,-4.7 -0.13,-0.12 -0.13,-0.14 -0.13,-0.17 0,-0.06 0.04,-0.1 0.1,-0.1 0.1,0 1,0.68 1.58,1.94 0.51,1.09 0.63,2.19 0.63,3.03 z"
         id="path3183" /></g>  </g>
</svg>
